<?xml version="1.0" encoding="UTF-8"?>
<svg id="Ebene_5" data-name="Ebene 5" xmlns="http://www.w3.org/2000/svg" viewBox="0 0 666 315">
  <defs>
    <style>
      .cls-1 {
        fill: #f9fafc;
        stroke-width: 0px;
      }
    </style>
  </defs>
  <g>
    <path class="cls-1" d="m114.32,217.07c-8.31,0-16.28-1.11-23.91-3.34-7.62-2.23-13.26-5.6-13.26-5.6-2.83-1.7-4.04-5.54-2.68-8.55l3.23-7.17c1.36-3.01,4.79-4.09,7.63-2.41,0,0,4.56,2.71,10.65,4.73,6.09,2.03,12.25,3.04,18.49,3.04,4.75,0,8.59-.47,11.51-1.41,2.92-.94,5.07-2.25,6.46-3.93,1.39-1.68,2.08-3.61,2.08-5.79,0-2.77-1.09-4.97-3.27-6.61-2.18-1.63-5.05-2.97-8.61-4.01-3.56-1.04-7.5-2.03-11.8-2.97-4.31-.94-8.61-2.1-12.92-3.49-4.31-1.39-8.24-3.17-11.8-5.35-3.56-2.18-6.46-5.05-8.69-8.61-2.23-3.56-3.34-8.12-3.34-13.66,0-5.94,1.61-11.36,4.83-16.26,3.22-4.9,8.07-8.81,14.55-11.73,6.48-2.92,14.63-4.38,24.43-4.38,6.53,0,12.97.77,19.3,2.3,6.33,1.54,11.44,4.16,11.44,4.16,2.93,1.51,4.32,5.24,3.08,8.3l-2.91,7.15c-1.24,3.06-4.68,4.36-7.63,2.89,0,0-4.33-2.15-9.18-3.49-4.85-1.34-9.6-2-14.25-2s-8.46.55-11.43,1.63c-2.97,1.09-5.1,2.5-6.38,4.23-1.29,1.73-1.93,3.74-1.93,6.01,0,2.67,1.09,4.83,3.27,6.46,2.18,1.63,5.05,2.95,8.61,3.93,3.56.99,7.5,1.98,11.8,2.97,4.31.99,8.61,2.13,12.92,3.42,4.31,1.29,8.24,3.02,11.8,5.2,3.56,2.18,6.46,5.05,8.69,8.61s3.34,8.07,3.34,13.51c0,5.84-1.63,11.19-4.9,16.04-3.27,4.85-8.14,8.76-14.63,11.73-6.48,2.97-14.68,4.45-24.57,4.45Z"/>
    <path class="cls-1" d="m249.38,195.99c3.3,0,6,2.7,6,6v7.31c0,3.3-2.7,6-6,6h-68.48c-3.3,0-6-2.7-6-6v-91.94c0-3.3,2.7-6,6-6h66.55c3.3,0,6,2.7,6,6v7.3c0,3.3-2.7,6-6,6h-42.65c-3.3,0-6,2.7-6,6v10.57c0,3.3,2.7,6,6,6h36.26c3.3,0,6,2.7,6,6v6.71c0,3.3-2.7,6-6,6h-36.26c-3.3,0-6,2.7-6,6v12.05c0,3.3,2.7,6,6,6h44.58Z"/>
    <path class="cls-1" d="m325.01,217.07c-8.22,0-15.81-1.34-22.79-4.01s-13.02-6.43-18.11-11.28c-5.1-4.85-9.06-10.54-11.88-17.08-2.82-6.53-4.23-13.66-4.23-21.38s1.41-14.85,4.23-21.38c2.82-6.53,6.8-12.22,11.95-17.08,5.15-4.85,11.18-8.61,18.11-11.28,6.93-2.67,14.45-4.01,22.57-4.01s15.76,1.34,22.64,4.01c6.88,2.67,12.87,6.44,17.97,11.28,5.1,4.85,9.08,10.52,11.95,17,2.87,6.48,4.31,13.64,4.31,21.46s-1.44,14.87-4.31,21.46c-2.87,6.58-6.86,12.28-11.95,17.08-5.1,4.8-11.09,8.54-17.97,11.21-6.88,2.67-14.38,4.01-22.49,4.01Zm-.15-20.49c4.65,0,8.93-.79,12.84-2.38,3.91-1.58,7.35-3.86,10.32-6.83,2.97-2.97,5.27-6.48,6.9-10.54,1.63-4.06,2.45-8.56,2.45-13.51s-.82-9.45-2.45-13.51c-1.63-4.06-3.91-7.57-6.83-10.54-2.92-2.97-6.36-5.25-10.32-6.83-3.96-1.58-8.27-2.38-12.92-2.38s-8.93.79-12.84,2.38c-3.91,1.58-7.35,3.86-10.32,6.83-2.97,2.97-5.27,6.48-6.9,10.54-1.63,4.06-2.45,8.56-2.45,13.51s.82,9.33,2.45,13.44c1.63,4.11,3.91,7.65,6.83,10.62,2.92,2.97,6.36,5.25,10.32,6.83,3.96,1.58,8.26,2.38,12.92,2.38Z"/>
  </g>
  <path class="cls-1" d="m593.43,37.8c3.3,0,6,2.7,6,6v20.17c0,3.3-1.91,7.91-4.24,10.24l-110.94,110.93c-2.33,2.33-6.15,2.33-8.49,0l-77.28-77.28c-2.33-2.33-4.24-6.94-4.24-10.24v-20.17c0-3.3,2.7-6,6-6h20.16c3.3,0,7.91,1.91,10.24,4.24l45.13,45.12c2.33,2.33,6.15,2.33,8.49,0l78.77-78.77c2.33-2.33,6.94-4.24,10.24-4.24h20.17Z"/>
  <path class="cls-1" d="m460.59,200.31c2.33,2.33,2.33,6.15,0,8.49l-29.96,29.96c-2.33,2.33-6.94,4.24-10.24,4.24h-20.17c-3.3,0-6-2.7-6-6v-20.17c0-3.3,1.91-7.91,4.24-10.24l29.96-29.96c2.33-2.33,6.15-2.33,8.49,0l23.68,23.68Z"/>
  <path class="cls-1" d="m561.53,206.59c2.33,2.33,4.24,6.94,4.24,10.24v20.17c0,3.3-2.7,6-6,6h-20.17c-3.3,0-7.91-1.91-10.24-4.24l-29.96-29.96c-2.33-2.33-2.33-6.15,0-8.49l23.68-23.68c2.33-2.33,6.15-2.33,8.49,0l29.96,29.96Z"/>
</svg>