<?xml version="1.0" encoding="UTF-8"?>
<svg xmlns="http://www.w3.org/2000/svg" id="b" data-name="Layer 2" viewBox="0 0 121.4506 32">
  <defs>
    <style>
      .e {
        fill: #fa0c00;
        stroke-width: 0px;
      }
    </style>
  </defs>
  <g id="c" data-name="groups">
    <g id="d" data-name="Adobe">
      <g>
        <path class="e" d="M13.3806,0H0v32L13.3806,0Z"></path>
        <path class="e" d="M22.7949,0h13.3631v32L22.7949,0Z"></path>
        <path class="e" d="M18.0877,11.7941l8.5165,20.2059h-5.5876l-2.5454-6.4331h-6.2326l5.8491-13.7728Z"></path>
      </g>
      <g>
        <path class="e" d="M57.9874,20.3499l1.5778,4.5241c.0523.1133.1307.1656.2702.1656h3.0335c.1656,0,.1918-.0785.1656-.2441l-6.2675-17.4078c-.0262-.1395-.0523-.1656-.1918-.1656h-3.7657c-.1046,0-.1656.0785-.1656.1918-.0523.9153-.1307,1.1942-.2441,1.4645l-5.5876,15.891c-.0262.1918.0349.2702.1918.2702h2.711c.1656,0,.2441-.0523.3051-.2179l1.4906-4.4718h6.4767ZM52.3736,17.3949c.8194-2.4756,1.9003-5.6486,2.3361-7.4617h.0262c.5405,1.9003,1.8131,5.666,2.3885,7.4617h-4.7508Z"></path>
        <path class="e" d="M71.0918,25.3099c1.6301,0,3.3648-.2964,5.1256-1.0548.1395-.0523.1656-.1133.1656-.2441-.0523-.4882-.1133-1.1942-.1133-1.7347V5.8885c0-.1046,0-.1569-.1307-.1569h-2.9551c-.1133,0-.1656.0523-.1656.1918v5.5527c-.462-.0523-.7845-.0785-1.1681-.0785-4.7682,0-7.6971,3.1468-7.6971,7.0782,0,4.559,3.0074,6.8341,6.9387,6.8341ZM73.0183,22.2764c-.4882.1569-1.0286.2179-1.5778.2179-2.1618,0-3.9314-1.2204-3.9314-4.1841,0-2.6238,1.8218-4.1754,4.2364-4.1754.4882,0,.9153.0523,1.2727.1918v7.9499Z"></path>
        <path class="e" d="M85.8102,11.3976c-4.0708,0-6.59,3.1207-6.59,6.9736,0,3.4432,2.0049,6.9387,6.529,6.9387,3.8268,0,6.5116-2.8156,6.5116-7.0259,0-3.7134-2.2751-6.8864-6.4506-6.8864ZM85.6446,14.1347c2.3013,0,3.2776,1.9788,3.2776,4.2364,0,2.7894-1.4383,4.1754-3.112,4.1754-2.0659,0-3.2863-1.7347-3.2863-4.2364,0-2.5715,1.2988-4.1754,3.1207-4.1754Z"></path>
        <path class="e" d="M95.3159,5.7316c-.1133,0-.1918.0523-.1918.1918v18.5497c0,.0785.0785.2179.1918.2441,1.2988.401,2.6587.5928,4.0621.5928,4.0185,0,7.9237-2.4931,7.9237-7.514,0-3.635-2.4931-6.3983-6.3983-6.3983-.8978,0-1.7347.1395-2.4669.3835l-.0349-5.8317c0-.1918-.0523-.2179-.2441-.2179h-2.8417ZM103.9631,18.1271c0,3.0074-2.0572,4.4195-4.28,4.4195-.462,0-.8717-.0262-1.2465-.1395v-7.915c.4271-.1656.9414-.3051,1.8916-.3051,2.1444,0,3.635,1.3598,3.635,3.9401Z"></path>
        <path class="e" d="M118.3299,19.1034c1.325,0,2.4146-.0262,2.7894-.1133.1395-.0261.1918-.0785.2179-.1918.0785-.2964.1133-.9153.1133-1.6737,0-2.5802-1.5516-5.7271-5.5614-5.7271-4.097,0-6.3721,3.3386-6.3721,7.1043,0,3.3386,1.7608,6.808,6.6946,6.808,1.848,0,3.0422-.2964,4.0708-.7845.1046-.0523.1569-.1395.1569-.2964v-2.2577c0-.1308-.0785-.1569-.1569-.1046-1.0286.4358-2.1444.6538-3.3648.6538-2.7633,0-4.0185-1.5255-4.097-3.4171h5.5091ZM112.8208,16.7673c.2179-1.325,1.0548-2.7633,2.9289-2.7633,2.0659,0,2.6064,1.7347,2.6064,2.5192v.2179c-.1133.0262-.462.0262-1.4906.0262h-4.0447Z"></path>
      </g>
    </g>
  </g>
</svg>
