<?xml version="1.0" encoding="UTF-8"?>
<svg xmlns="http://www.w3.org/2000/svg" id="b" data-name="Layer 2" viewBox="0 0 221.1732 32">
  <defs>
    <style>
      .e {
        fill: none;
        stroke: #1a1817;
        stroke-miterlimit: 3.864;
        stroke-width: 1.5754px;
      }

      .f {
        fill: #fff;
      }

      .f, .g, .h, .i {
        stroke-width: 0px;
      }

      .g, .h {
        fill: #1a1817;
      }

      .h, .i {
        fill-rule: evenodd;
      }

      .i {
        fill: #dc002c;
      }
    </style>
  </defs>
  <g id="c" data-name="groups">
    <g id="d" data-name="BEKB">
      <path class="g" d="M51.5766,10.8725h.8045c.3861,0,1.8363,0,1.8363-1.5722,0-1.0685-.5946-1.6106-1.5383-1.6106h-1.1025v3.1828ZM51.5766,5.6974h.6997c1.6432,0,1.6957-1.2785,1.6957-1.5056,0-.4371-.2441-1.4687-1.6432-1.4687h-.7522v2.9742ZM48.8139.7294h4.5465c2.5711,0,3.3757,1.7312,3.3757,3.0424,0,1.9426-1.5042,2.7103-2.2036,2.7983v.0355c1.3821.2795,2.4477,1.0316,2.4477,2.9544,0,3.0963-3.0607,3.3758-3.7773,3.3758h-4.3889"></path>
      <path class="g" d="M70.2592.7294h7.0481v2.1328h-4.2852v2.7302h4.0753v2.1328h-4.0753v3.0792h4.4953v2.1313h-7.2582"></path>
      <path class="g" d="M90.3451.7294h2.8666v5.0361h.0353l3.0084-5.0361h3.2183l-3.7787,5.7186,4.0753,6.4877h-3.427l-3.0962-5.5966h-.0353v5.5966h-2.8666"></path>
      <path class="g" d="M114.8955,10.8725h.8031c.3859,0,1.8361,0,1.8361-1.5722,0-1.0685-.5946-1.6106-1.5381-1.6106h-1.1011v3.1828ZM114.8955,5.6974h.6995c1.6432,0,1.6943-1.2785,1.6943-1.5056,0-.4371-.2441-1.4687-1.6418-1.4687h-.752v2.9742ZM112.1313.7294h4.5465c2.5727,0,3.3743,1.7312,3.3743,3.0424,0,1.9426-1.5012,2.7103-2.2009,2.7983v.0355c1.3808.2795,2.4465,1.0316,2.4465,2.9544,0,3.0963-3.0595,3.3758-3.7761,3.3758h-4.3903"></path>
      <path class="g" d="M153.0199,10.8725h.8061c.3845,0,1.8361,0,1.8361-1.5722,0-1.0685-.596-1.6106-1.5381-1.6106h-1.1041v3.1828ZM153.0199,5.6974h.6997c1.6446,0,1.6971-1.2785,1.6971-1.5056,0-.4371-.2455-1.4687-1.6432-1.4687h-.7536v2.9742ZM150.2572.7294h4.5465c2.5727,0,3.3759,1.7312,3.3759,3.0424,0,1.9426-1.5042,2.7103-2.2038,2.7983v.0355c1.3821.2795,2.4493,1.0316,2.4493,2.9544,0,3.0963-3.0609,3.3758-3.7789,3.3758h-4.3889"></path>
      <path class="g" d="M179.9228,3.4921c-.4384-.2455-1.172-.6996-2.4833-.6996-1.9242,0-3.1488,1.5566-3.1488,4.0229,0,2.3783,1.3807,3.9888,3.2013,3.9888,1.3991,0,2.2208-.5265,2.5002-.6485l.1051,2.5528c-.4909.1575-1.5042.4371-3.0609.4371-3.3403,0-5.683-2.5003-5.683-6.3642,0-4.4784,3.0068-6.2607,5.49-6.2607,1.8178,0,2.7473.4016,3.2196.5931"></path>
      <path class="g" d="M195.231,10.8725h.8045c.3861,0,1.8355,0,1.8355-1.5722,0-1.0685-.5952-1.6106-1.5375-1.6106h-1.1025v3.1828ZM195.231,5.6974h.6995c1.6424,0,1.6957-1.2785,1.6957-1.5056,0-.4371-.2441-1.4687-1.6432-1.4687h-.752v2.9742ZM192.4681.7294h4.5479c2.5692,0,3.3749,1.7312,3.3749,3.0424,0,1.9426-1.5048,2.7103-2.2038,2.7983v.0355c1.3823.2795,2.4487,1.0316,2.4487,2.9544,0,3.0963-3.0628,3.3758-3.7771,3.3758h-4.3905"></path>
      <path class="g" d="M213.916.7294h7.0479v2.1328h-4.2852v2.7302h4.0739v2.1328h-4.0739v3.0792h4.4946v2.1313h-7.2573"></path>
      <path class="e" d="M134.807,0v32"></path>
      <path class="f" d="M29.9565,30.9783c.0638.0071.0879.0071,0,0,.1732.0213.2058.0342.342,0-.1291-.0197-.1165.0142,0,0-.1448-.1021-.1448-.1418,0-.3391V1.0217c-.1519.0497-.1519.0866,0,0-.1376-.0355-.125-.0681,0,0-.1448-.088-.1775-.0752-.342,0,.034-.0539.0794-.061,0,0H.6824c-.078-.0539-.0397-.0539,0,0-.1632-.0681-.1958-.0809-.342,0,.1263-.061.1405-.0284,0,0,.1547.0553.1547.0936,0,0v29.6175c.1533.2028.1518.2411,0,.3391.1249.0186.1376-.0142,0,0,.1447.0383.1788.0241.342,0-.0795.0115-.0412.0115,0,0"></path>
      <path class="h" d="M22.8075,8.1706c.1078.0695.1122.0639,0,0,.1633-.0071.2101-.0539.3406,0-.1448-.0795-.2101-.0539-.3406,0,.0454-.0482.0085-.0497,0,0h-9.872c-.0184-.034.0099-.0468,0,0-.1263-.0908-.0979-.0695,0,0-.1518-.0766-.1476-.0412,0,0-.1561.0454-.1845.0582-.3391,0l-4.7664,7.4895c-.0937.1774-.1263.2313-.3406.342.1107-.0454.1433-.061,0,0,.1107-.017.1433-.0028,0,0,.2143.0483.2483.105.3406,0l4.7664,7.4881c.1547.0397.1845.0624.3391,0-.1419.1475-.1447.1831,0,.3391-.1192-.1432-.0908-.1645,0-.3391-.0128.1349.0128.1532,0,0h9.872c-.0085.1448.0312.1434,0,0,.1179.1475.1831.1603.3406,0-.1434.1349-.1874.0895-.3406,0,.0681-.0057.1023.0227,0,0l-4.7664-7.4881c-.166.0922-.193.0483-.3377,0,.0412-.017.0738-.0028,0,0,.0412-.0454.0738-.061,0,0,.1433-.1107.1774-.1646.3377-.342"></path>
      <path class="i" d="M6.8084,24.8527h17.0211c.0539.034.0922.0353,0,0,.1773.051.2113.0624.3404,0-.122.0085-.1078.0425,0,0-.1363-.1149-.1363-.0766,0,0V7.1492c-.1319-.0312-.1305-.0724,0,0-.1163-.1575-.1035-.1901,0-.3405-.1234.1291-.1574.1433-.3404,0,.034.1547.0977.1575,0,0H6.8084c-.0894.1575-.0511.1589,0,0-.176.1433-.2086.132-.3406,0,.1107.1504.1249.1845,0,.3405.1391-.071.1391-.0312,0,0v17.7036c.1391-.1135.1391-.0739,0,0,.1107.0454.1249.0113,0,0,.132.0667.1646.0525.3406,0-.071.0326-.0894.0383,0,0ZM30.2986,31.3191c.0227-.0269.0468-.0269,0,0,.1335-.0128.1675,0,.3393,0-.1519-.0199-.1647-.0539-.3393,0,.159-.139.159-.1787,0-.3405V1.0219c.1505-.2157.1505-.2554,0-.3406.1647,0,.1789-.034.3393,0-.1817-.0539-.2158-.0411-.3393,0-.0085-.0199.0383-.027,0,0H.3406c-.0369-.0199.0014-.0199,0,0-.1235-.034-.1561-.0468-.3406,0,.1646-.027.1774.0057.3406,0-.149.0922-.149.1306,0,.3406v29.9567c-.1504.1673-.1504.2056,0,.3405-.1646-.0482-.1788-.0156-.3406,0,.1831.0043.2171-.0085.3406,0-.0383-.0227,0-.0227,0,0"></path>
    </g>
  </g>
</svg>
