<?xml version="1.0" encoding="UTF-8"?>
<svg xmlns="http://www.w3.org/2000/svg" xmlns:xlink="http://www.w3.org/1999/xlink" id="b" data-name="Layer 2" viewBox="0 0 53.912 32">
  <defs>
    <style>
      .af {
        fill: none;
      }

      .af, .ag {
        stroke-width: 0px;
      }

      .ag {
        fill: #2b2e34;
      }

      .ah {
        clip-path: url(#p);
      }

      .ai {
        clip-path: url(#h);
      }
    </style>
    <clipPath id="h">
      <rect class="af" width="53.912" height="32"></rect>
    </clipPath>
    <clipPath id="p">
      <rect class="af" width="53.912" height="32"></rect>
    </clipPath>
  </defs>
  <g id="c" data-name="groups">
    <g id="d" data-name="Bellvita">
      <path id="e" data-name="Pfad 169" class="ag" d="M33.0273,20.4817h-.6131v-9.6291h.6131v9.6291Z"></path>
      <path id="f" data-name="Pfad 170" class="ag" d="M42.4471,20.483h-.6131v-6.3668h.6131v6.3668Z"></path>
      <path id="g" data-name="Pfad 171" class="ag" d="M30.2915,20.4817h-.6131v-9.6291h.6131v9.6291Z"></path>
      <g class="ai">
        <g id="i" data-name="Gruppe 210">
          <g id="j" data-name="Gruppe 208-2">
            <path id="k" data-name="Pfad 172" class="ag" d="M47.0599,14.7275v-.6131h-2.2311v-3.2617h-.6131v7.7309h0c.0026,1.0487.8533,1.8974,1.902,1.8976h.9412v-.6131h-.9442c-.7095-.0003-1.2847-.575-1.2858-1.2844h0v-3.8561h2.2311Z"></path>
          </g>
          <g id="l" data-name="Gruppe 209">
            <path id="m" data-name="Pfad 173" class="ag" d="M42.5057,11.2177c-.0002-.2017-.1637-.3651-.3654-.3651-.2017,0-.3652.1634-.3654.3651,0,.2018.1636.3654.3654.3654.2018,0,.3654-.1636.3654-.3654"></path>
          </g>
        </g>
      </g>
      <g id="n" data-name="Gruppe 211">
        <path id="o" data-name="Pfad 175" class="ag" d="M39.8901,14.1143l-2.4637,5.1765-2.4623-5.1765h-.679l3.1419,6.6035.2522-.5301,2.89-6.0734h-.679Z"></path>
      </g>
      <g class="ah">
        <g id="q" data-name="Gruppe 219">
          <g id="r" data-name="Gruppe 212">
            <path id="s" data-name="Pfad 176" class="ag" d="M18.0592,14.1143h-1.6706v-3.2617h-.6131v9.6288h2.2837c1.7581,0,3.1834-1.4253,3.1834-3.1834s-1.4253-3.1834-3.1834-3.1834M18.0592,19.876h-1.6706v-5.1557h1.6706c1.4235,0,2.5774,1.154,2.5774,2.5774v.0003c0,1.4235-1.1539,2.5776-2.5774,2.5777"></path>
          </g>
          <g id="t" data-name="Gruppe 213">
            <path id="u" data-name="Pfad 177" class="ag" d="M25.5765,14.7203h2.3745v-.606h-2.3745c-1.7581,0-3.1834,1.4253-3.1834,3.1834s1.4253,3.1834,3.1834,3.1834h2.3745v-.6054h-2.3745c-1.4235,0-2.5774-1.154-2.5774-2.5774v-.0003c-.0002-.2031.0236-.4054.0709-.6029h4.8811v-.6123h-4.648c.4483-.8389,1.3223-1.3627,2.2735-1.3625"></path>
          </g>
          <g id="v" data-name="Gruppe 214">
            <path id="w" data-name="Pfad 178" class="ag" d="M53.7882,16.0855c-.0031-1.0902-.8882-1.9721-1.9784-1.9712h-2.9401v.606h2.9401c.754,0,1.3653.6112,1.3653,1.3653,0,0,0,0,0,0h0v.0014h-2.6801c-1.214-.0006-2.1987.9831-2.1993,2.1971h0c.0006,1.214.9853,2.1977,2.1993,2.1971h3.2941l-.0008-4.3956ZM53.1751,19.868h-2.6815c-.876,0-1.5862-.7101-1.5862-1.5862.0002-.8759.7103-1.5859,1.5862-1.5859h2.6815v3.172Z"></path>
          </g>
          <g id="x" data-name="Gruppe 215">
            <path id="y" data-name="Pfad 179" class="ag" d="M10.4008,9.36c-.0002.8362-.6779,1.5142-1.5142,1.5145-.8364-.0002-1.5143-.6781-1.5145-1.5145-.0002-.8363.6776-1.5143,1.5139-1.5145h.0006c.8363.0002,1.5142.6782,1.5142,1.5145"></path>
          </g>
          <g id="z" data-name="Gruppe 216">
            <path id="aa" data-name="Pfad 180" class="ag" d="M.4166.0008C-1.597,12.0844,11.4461,19.541,14.766,8.6322,10.9655,20.839-1.7661,13.3096.4166.0008"></path>
          </g>
          <g id="ab" data-name="Gruppe 217">
            <path id="ac" data-name="Pfad 181" class="ag" d="M0,32c2.3031-17.4068,12.8612-21.2938,12.8404-4.3313-.0659-12.7842-10.2724-23.1156-12.8404,4.3313"></path>
          </g>
          <g id="ad" data-name="Gruppe 218">
            <path id="ae" data-name="Pfad 182" class="ag" d="M16.8565,25.8796c.1077-.0392.207-.0982.2929-.1741.0795-.0699.1433-.1558.1871-.2522l-.2818-.0783c-.0432.1005-.1198.183-.2167.2336-.1021.0585-.2178.0891-.3355.0889-.1093.0004-.2168-.0283-.3114-.083-.0963-.0548-.1772-.133-.2353-.2273-.0619-.1004-.0982-.2145-.1057-.3322h1.6055c.003-.0177.0049-.0355.0055-.0534,0-.0233.0019-.0471.0019-.0717.001-.1678-.0404-.3331-.1204-.4806-.0795-.1471-.1958-.271-.3374-.3599-.1529-.0945-.3299-.1426-.5096-.1384-.1805-.0033-.3584.0438-.5135.1362-.1462.0872-.267.2113-.3502.3599-.0845.1517-.128.3229-.126.4966-.0008.1311.0238.2611.0722.3828.0466.1188.1156.2274.2035.32.0883.0924.1942.1662.3114.217.1258.0539.2615.0809.3983.0792.1245.0011.2482-.0203.3651-.0631M15.9446,24.5008c.0583-.0931.1393-.17.2353-.2234.0963-.0537.2048-.0814.315-.0806.1115-.0012.2214.0265.3189.0806.0963.0537.1779.1304.2372.2234.063.0991.0999.2125.1074.3297h-1.3196c.0075-.1169.0438-.2302.1057-.3297M19.8383,24.7576c.0007-.1073-.0085-.2144-.0277-.32-.0157-.0899-.0471-.1764-.0927-.2555-.0426-.0717-.1042-.1302-.178-.1691-.0868-.043-.183-.0639-.2799-.0606-.1111-.0004-.2214.0184-.3261.0554-.1004.0353-.194.0875-.2768.1545-.0807.0653-.1486.1451-.2001.2353v-.4152h-.2979v1.9239h.3264v-1.1588c.0287-.096.0788-.1843.1464-.2583.0662-.0731.1455-.1334.2336-.1777.0819-.0425.1727-.065.2649-.0659.1141-.0072.2235.0466.2873.1415.073.1368.1057.2916.0944.4462v1.0727h.3261v-1.1482ZM21.5842,25.5604c-.0349.0179-.0708.034-.1074.0482-.0566.0227-.117.0341-.178.0335-.0538.001-.1062-.0167-.1484-.0501-.0446-.0387-.0702-.0949-.0703-.1539v-1.2008h.4338v-.2558h-.4338v-.645h-.3261v.645h-.2633v.2558h.2633v1.301c-.003.0801.0176.1593.0592.2278.038.06.0933.107.1586.1348.0693.0289.1437.0434.2187.0426.0662.0004.1321-.007.1965-.0221.0557-.0128.1102-.0301.163-.0518.0469-.0197.0838-.0358.1107-.0482l-.0767-.261ZM23.5117,25.7899c.1362-.0976.2142-.2572.2076-.4246.0063-.1002-.0255-.199-.0889-.2768-.0692-.0727-.1546-.1281-.2491-.1617-.1074-.0415-.234-.0831-.3798-.1248-.0941-.0293-.1738-.0563-.2392-.0808-.0557-.0184-.1064-.0492-.1484-.0902-.035-.0399-.053-.092-.0501-.1451-.004-.0634.0189-.1255.0631-.1711.0447-.0419.0997-.071.1594-.0844.0643-.0159.1303-.0239.1965-.0238.1053-.0015.2099.0181.3075.0576.0952.0409.181.1008.2522.1761l.1484-.2262c-.0845-.0868-.187-.1539-.3003-.1965-.1245-.0459-.2565-.0685-.3892-.0667-.1309-.0022-.2611.0202-.3837.0662-.1047.0385-.1965.1057-.2649.1938-.066.0899-.0999.1994-.0963.3109-.0033.0884.0213.1755.0703.2491.0538.0722.1253.1294.2076.1661.1089.0507.2218.0925.3374.1248.1087.0295.2026.0559.2818.0792.0661.017.1283.0463.1835.0864.0454.0396.0694.0983.0648.1583.0034.0917-.0454.1775-.126.2215-.1.0538-.2126.0797-.3261.075-.1169-.0001-.2327-.0228-.341-.0667-.1239-.0526-.237-.1277-.3336-.2215l-.126.2298c.1013.1063.2255.1881.3632.2392.1447.0538.298.0809.4523.0797.1938.0091.3855-.0442.5467-.1522M25.9358,25.8084c.132-.0915.2371-.2166.3045-.3624.0743-.1563.1122-.3274.1107-.5005.0004-.1276-.0229-.2543-.0687-.3734-.0443-.1166-.109-.2244-.191-.3183-.0804-.0926-.1787-.1679-.289-.2215-.1146-.0546-.2401-.0823-.3671-.0808-.1421-.0011-.2817.0364-.4042.1085-.1212.07-.2241.1677-.3003.2851v-.364h-.289v2.7128h.3261v-1.1682c.0726.1212.173.2233.2929.2981.1265.0793.2732.1201.4224.1176.161.0028.3189-.0441.4523-.1343M25.1311,25.5994c-.0814-.0402-.1544-.0955-.2151-.163-.0612-.0674-.1113-.1441-.1484-.2273v-.5481c.0129-.0606.0395-.1174.0778-.1661.041-.0531.0897-.0998.1445-.1384.0552-.0395.1157-.071.1797-.0936.0589-.0212.1209-.0324.1835-.0329.0902-.0008.1795.0186.2613.0567.0799.0377.1517.0908.2112.1561.0608.0663.1085.1434.1409.2273.0335.0866.0505.1787.0501.2716,0,.0899-.015.1792-.0446.2641-.0284.0836-.0718.1613-.1279.2295-.055.0668-.1231.1218-.2001.1614-.0809.0412-.1706.062-.2613.0606-.0876-.0002-.174-.0209-.2522-.0603M27.0173,25.6462c.0585.0912.1405.165.2372.2137.1067.0541.225.0812.3446.0792.1394-.0012.2771-.0315.4042-.0889.13-.0532.2442-.1388.3319-.2486l.0075.1224c.0065.0503.0293.0972.0648.1334.0456.045.1085.068.1725.0631.0192-.0002.0385-.0014.0576-.0036.0234-.0024.0511-.0061.083-.0111v-.2522c-.0297.0007-.0584-.0106-.0797-.0313-.0181-.025-.0266-.0556-.0241-.0864v-.8122c.0117-.2111-.0669-.4172-.2162-.5669-.1608-.1425-.3713-.2158-.5857-.204-.1336-.0004-.2664.0215-.3928.0648-.1342.0472-.2614.1124-.3781.1938l.1185.2298c.0971-.0659.2008-.1216.3095-.1661.097-.0381.2003-.0577.3045-.0576.1377-.0089.2734.0364.3781.1262.0917.0908.1403.2165.1334.3455v.1401c-.0829-.0293-.1686-.0498-.2558-.0612-.0909-.0132-.1825-.0201-.2743-.0205-.1467-.0029-.2926.0221-.4299.0736-.1139.0421-.2143.114-.2909.2082-.0709.0909-.1083.2034-.1057.3186-.0013.1063.0284.2106.0853.3003M27.9754,25.6374c-.091.0403-.1895.0609-.289.0606-.0843.0028-.168-.0163-.2428-.0554-.0614-.0328-.1127-.0817-.1484-.1415-.0323-.0538-.0496-.1152-.0501-.178-.0014-.1102.0577-.2123.1539-.266.1222-.0698.2616-.1035.4022-.0972.0836.0002.167.0082.2491.0238.0821.0154.1627.0381.2408.0678v.2403c-.002.0315-.0108.0623-.026.09-.0188.0378-.0424.073-.0703.1046-.0611.0659-.1357.1178-.2187.1522M31.151,24.7576c.0007-.1073-.0085-.2144-.0277-.32-.0157-.0899-.0471-.1764-.0927-.2555-.0426-.0717-.1042-.1302-.178-.1691-.0868-.043-.183-.0639-.2799-.0606-.1111-.0004-.2214.0184-.3261.0554-.1004.0353-.194.0875-.2768.1545-.0808.0653-.1486.1451-.2001.2353v-.4152h-.2979v1.9239h.3261v-1.1588c.0287-.096.0788-.1843.1464-.2583.0662-.0731.1455-.1334.2336-.1777.0819-.0425.1727-.065.2649-.0659.1141-.0072.2235.0466.2873.1415.073.1368.1057.2916.0944.4462v1.0727h.3261l.0003-1.1482ZM33.6714,24.7576c.0007-.1073-.0085-.2144-.0277-.32-.0157-.0899-.0471-.1764-.0927-.2555-.0426-.0717-.1042-.1302-.178-.1691-.0868-.043-.183-.0639-.2799-.0606-.1111-.0004-.2214.0184-.3261.0554-.1004.0353-.194.0875-.2768.1545-.0808.0653-.1486.1451-.2001.2353v-.4152h-.2979v1.9239h.3261v-1.1588c.0287-.096.0788-.1843.1464-.2583.0662-.0731.1455-.1334.2336-.1777.0819-.0425.1727-.065.2649-.0659.1141-.0072.2235.0466.2873.1415.073.1368.1057.2916.0944.4462v1.0727h.3261l.0003-1.1482ZM35.4173,25.5604c-.0349.0179-.0708.034-.1074.0482-.0566.0227-.117.0341-.178.0335-.0538.001-.1062-.0167-.1484-.0501-.0446-.0387-.0702-.0949-.0703-.1539v-1.2008h.4338v-.2558h-.4338v-.645h-.3264v.645h-.2633v.2558h.2633v1.301c-.003.0801.0176.1593.0592.2278.0384.0596.094.1061.1594.1334.0693.0289.1437.0434.2187.0426.0662.0004.1321-.007.1965-.0221.0557-.0128.1102-.0301.163-.0518.0469-.0197.0838-.0358.1107-.0482l-.0772-.2597ZM38.5453,25.7899c.1362-.0976.2142-.2572.2076-.4246.0063-.1002-.0255-.199-.0889-.2768-.0692-.0727-.1546-.1281-.2491-.1617-.1074-.0415-.234-.0831-.3798-.1248-.0939-.0293-.1737-.0563-.2392-.0808-.0557-.0184-.1064-.0492-.1484-.0902-.035-.0399-.053-.092-.0501-.1451-.0039-.0634.019-.1254.0631-.1711.0447-.0418.0997-.071.1594-.0844.0643-.0159.1303-.0239.1965-.0238.1053-.0015.2099.0181.3075.0576.0952.0409.181.1008.2522.1761l.1484-.2262c-.0844-.0868-.187-.1539-.3003-.1965-.1245-.046-.2565-.0686-.3892-.0667-.1309-.0022-.2611.0202-.3837.0662-.1047.0386-.1964.1057-.2649.1938-.066.0899-.0999.1994-.0963.3109-.0032.0884.0214.1755.0703.2491.0539.0721.1254.1293.2076.1661.1089.0507.2218.0924.3374.1248.1087.0295.2026.0559.2818.0792.0661.017.1284.0463.1835.0864.0455.0395.0695.0983.0648.1583.0034.0917-.0454.1775-.126.2215-.1.0538-.2126.0797-.3261.075-.1169-.0001-.2327-.0228-.341-.0667-.1239-.0526-.237-.1277-.3336-.2215l-.126.2298c.1013.1063.2255.1881.3632.2392.1447.0538.298.0808.4523.0797.1936.009.3849-.0444.5459-.1522M40.6926,25.8796c.105-.0391.2017-.0976.2851-.1725.0775-.0688.1388-.1539.1797-.2491l-.3189-.0963c-.0232.0588-.0614.1105-.1107.15-.055.0473-.1177.0848-.1855.1107-.0706.0272-.1457.041-.2215.0407-.1152.001-.2281-.0322-.3244-.0955-.0988-.0647-.1792-.1537-.2336-.2585-.059-.1126-.089-.2381-.0872-.3651-.0024-.1268.027-.2522.0853-.3648.0536-.1029.1335-.1896.2317-.2513.0971-.061.2097-.0928.3244-.0916.1038-.0013.2061.0249.2965.0758.0881.0498.1602.1237.2076.2131l.3189-.1002c-.0691-.1433-.1795-.2628-.317-.343-.1512-.0876-.3236-.1319-.4983-.1279-.1808-.0038-.3592.0427-.5152.1343-.1453.0866-.2644.2109-.3446.3599-.0823.1525-.1244.3234-.1224.4966-.0008.1311.0238.2611.0722.3828.0471.1186.1163.2271.2037.32.0879.0934.1938.1679.3114.219.1258.0539.2615.0809.3983.0792.1234.0013.2459-.0201.3615-.0631M43.5383,24.7607c.0008-.1068-.0098-.2135-.0316-.3181-.0185-.0906-.053-.1771-.1019-.2555-.046-.0727-.1106-.1317-.1871-.1711-.0907-.0433-.1905-.064-.2909-.0606-.1511-.0006-.2993.0408-.4282.1196-.1313.0789-.2394.1912-.3131.3255v-1.1975h-.3236v2.7059h.3261v-1.1588c.0283-.095.0763-.1831.1409-.2583.0626-.0731.1387-.1335.2242-.1777.0781-.042.1652-.0646.2538-.0659.1192-.0058.233.0496.302.147.0796.1326.1165.2864.1057.4407v1.0727h.3261l-.0025-1.148ZM44.387,25.5358c-.0063.1115.0338.2206.1107.3015.0807.075.1884.114.2984.108.0661-.001.1319-.0084.1965-.0221.0662-.0123.1311-.0308.1938-.0554l-.0518-.2669c-.0387.0143-.0783.026-.1185.0352-.0486.0113-.0984.0169-.1484.0166-.0391.0011-.0773-.0121-.1074-.0371-.0297-.0249-.0446-.0907-.0446-.1974v-2.2145h-.3253l-.0036,2.3322ZM45.7066,25.6523c.0585.0912.1404.1651.2372.2137.1067.0541.225.0813.3446.0792.1394-.0013.2771-.0315.4042-.0889.1297-.0546.2432-.1414.33-.2522l.0075.1224c.0064.0504.0291.0972.0648.1334.0466.0446.1104.0666.1747.0603.0192-.0002.0385-.0014.0576-.0036.0233-.0024.0509-.0061.083-.0111v-.2522c-.0297.0007-.0584-.0106-.0797-.0313-.0182-.025-.0267-.0556-.0241-.0864v-.8122c.012-.2107-.066-.4167-.2145-.5666-.1608-.1424-.3713-.2157-.5857-.204-.1336-.0004-.2664.0215-.3928.0648-.1342.0472-.2614.1124-.3781.1938l.1185.2298c.0971-.066.2008-.1217.3095-.1661.097-.0382.2003-.0577.3045-.0576.1377-.0089.2734.0364.3781.1262.0917.0908.1403.2165.1334.3455v.1401c-.0829-.0293-.1686-.0498-.2558-.0612-.0909-.0132-.1825-.0201-.2743-.0205-.1467-.0029-.2926.0221-.4299.0736-.1139.0421-.2144.1139-.2909.2082-.0709.0909-.1083.2034-.1057.3186-.0013.1063.0283.2106.0853.3003M46.6641,25.636c-.091.0402-.1895.0609-.289.0606-.0843.0028-.168-.0163-.2428-.0554-.0614-.0328-.1127-.0817-.1484-.1415-.0323-.0538-.0496-.1152-.0501-.178-.0014-.1102.0576-.2123.1539-.266.1221-.0699.2616-.1036.4022-.0972.0836.0002.167.0082.2491.0238.0821.0155.1627.0382.2408.0678v.2417c-.002.0315-.0109.0622-.026.09-.0188.0378-.0425.0729-.0703.1046-.0611.0658-.1357.1178-.2187.1522M48.5774,25.907v-1.6792h.5152v-.2558h-.5152v-.0518c-.0076-.1241.0228-.2476.0872-.354.0551-.0813.1483-.1283.2464-.1243.0508.0002.1013.0076.15.0221.0456.0125.0889.0325.1279.0592l.0817-.2408c-.0623-.0384-.1296-.0677-.2001-.0872-.0736-.0209-.1497-.0316-.2262-.0316-.1121-.0026-.2222.0298-.315.0927-.0927.0666-.1642.1586-.2057.2649-.051.1304-.0756.2697-.0722.4097v.0407h-.2621v.2558h.2633v1.6792l.325.0003ZM50.9304,25.881c.1077-.0392.207-.0982.2929-.1741.0795-.0699.1433-.1558.1871-.2522l-.2821-.0797c-.0432.1005-.1198.183-.2167.2336-.1021.0585-.2178.0891-.3355.0889-.1093.0004-.2168-.0283-.3114-.083-.0963-.0548-.1772-.133-.2353-.2273-.0619-.1004-.0982-.2145-.1057-.3322h1.6055c.003-.0177.0049-.0355.0055-.0534,0-.0233.0019-.0471.0019-.0717.001-.1678-.0404-.3331-.1204-.4806-.0795-.1471-.1958-.271-.3374-.3599-.1529-.0945-.3299-.1426-.5096-.1384-.1805-.0033-.3584.0438-.5135.1362-.1462.0872-.267.2113-.3502.3599-.0845.1517-.128.3229-.126.4966-.0008.1311.0238.2611.0722.3828.0469.1181.116.2261.2037.3181.0883.0924.1942.1662.3114.217.1258.0539.2615.0809.3983.0792.1245.0011.2482-.0203.3651-.0631M50.0186,24.4988c.0583-.0931.1393-.17.2353-.2234.0963-.0537.2048-.0814.315-.0806.1115-.0012.2214.0265.3189.0806.0963.0537.1779.1304.2372.2234.063.0991.0999.2125.1074.3297h-1.3196c.0075-.1169.0438-.2302.1057-.3297M53.9131,24.7576c.0007-.1073-.0085-.2144-.0277-.32-.0156-.09-.047-.1765-.0927-.2555-.0426-.0717-.1042-.1302-.178-.1691-.0868-.043-.183-.0639-.2799-.0606-.1111-.0004-.2214.0184-.3261.0554-.1004.0353-.194.0875-.2768.1545-.0808.0653-.1486.1451-.2001.2353v-.4152h-.299v1.9239h.3261v-1.1588c.0288-.096.0788-.1843.1464-.2583.0662-.0731.1455-.1334.2336-.1777.0819-.0424.1727-.065.2649-.0659.1141-.0073.2235.0466.2873.1415.073.1368.1057.2916.0944.4462v1.0727h.3275v-1.1482Z"></path>
          </g>
        </g>
      </g>
    </g>
  </g>
</svg>
