<?xml version="1.0" encoding="UTF-8"?>
<svg xmlns="http://www.w3.org/2000/svg" id="b" data-name="Layer 2" viewBox="0 0 75.8823 32">
  <defs>
    <style>
      .e {
        fill: #01a3e0;
        stroke-width: 0px;
      }
    </style>
  </defs>
  <g id="c" data-name="groups">
    <g id="d" data-name="css">
      <path class="e" d="M64.7788,31.9945c-1.3496-.0044-2.7037-.1624-4.0399-.4964-2.9115-.7358-5.4076-2.1847-7.5201-4.3153-.7132-.7222-1.3135-1.5392-1.9228-2.3473-.8487-1.1239-1.7605-2.1892-2.8257-3.119-1.1194-.9796-2.3834-1.7153-3.7555-2.2751-1.1465-.4695-2.3383-.8079-3.5253-1.1555-1.7514-.5101-3.4802-1.0788-5.0871-1.959-1.2504-.6861-2.3698-1.5257-3.214-2.6947-.7041-.975-1.1239-2.0583-1.2819-3.2455-.2392-1.801.0091-3.5253.8216-5.1593.6951-1.4038,1.7243-2.5142,3.0152-3.3854,1.124-.7583,2.3607-1.2594,3.6787-1.5483C40.4582.0004,41.8123-.0493,43.1756.0681c2.3697.2031,4.577.9118,6.6217,2.126.5056.3024.9886.6455,1.449,1.0111.1037.0812.0902.1354.0225.2257-.9254,1.2684-1.8461,2.5368-2.7625,3.8097-.0903.1264-.149.0406-.2122-.0045-.6861-.492-1.4038-.9298-2.1712-1.2819-1.5437-.7087-3.1552-.993-4.8524-.808-.9525.1038-1.8597.325-2.6903.817-.7086.4198-1.2638.975-1.5528,1.7604-.4559,1.2368-.1895,2.7038,1.1511,3.6066.7222.4874,1.5121.8395,2.3246,1.142,1.2955.4874,2.6361.8396,3.9587,1.2277,2.3788.6996,4.6176,1.6837,6.5812,3.2365,1.0247.8125,1.959,1.7197,2.8528,2.6676.9118.9615,1.7287,2.0087,2.6361,2.9747,1.0291,1.0969,2.1485,2.0899,3.4576,2.8527.9569.5552,1.9726.9569,3.0559,1.1691,1.0472.2032,2.1034.2303,3.1642.0993.8982-.1129,1.7559-.3476,2.5278-.8305.8847-.5508,1.4941-1.309,1.634-2.3744.1445-1.0788-.1851-1.9861-1.0201-2.6993-.6003-.51-1.2864-.8801-1.9906-1.2187-1.3541-.6545-2.7489-1.2277-4.1302-1.8236-1.2684-.5507-2.5413-1.0878-3.7194-1.8236-1.0924-.6861-2.09-1.4806-2.8798-2.5142-.8757-1.1465-1.3723-2.4374-1.4309-3.8819-.0949-2.3653.6229-4.4461,2.2073-6.2156,1.0562-1.1781,2.3561-2.0042,3.8277-2.5594,1.5438-.5823,3.1506-.7944,4.7937-.7403,1.2729.0451,2.5187.2392,3.7465.5868,1.6926.483,3.2589,1.2187,4.6854,2.2524.1488.1083.2888.2347.4423.3385.1219.0812.1038.1444.027.2528-.6815.9299-1.3586,1.8642-2.0402,2.7941-.2302.316-.4695.6319-.6906.9569-.0812.1174-.1309.1219-.2437.0406-.8215-.6049-1.7017-1.1149-2.6496-1.4941-1.4084-.5642-2.8618-.7628-4.3739-.6003-.8621.0948-1.6972.2889-2.4691.6951-.8396.4424-1.5031,1.0562-1.8055,1.9771-.4198,1.2864-.0722,2.5142,1.133,3.3628.6771.4739,1.4218.817,2.1756,1.1375,1.3497.5733,2.7038,1.1375,4.058,1.6973,1.2503.5146,2.46,1.1059,3.593,1.8461,1.0743.7042,2.0448,1.5257,2.8122,2.5639.9343,1.2593,1.4084,2.6766,1.449,4.2429.0405,1.5619-.2393,3.0469-.9796,4.4327-.8125,1.5211-2.0267,2.6315-3.5389,3.435-.9615.5145-1.9861.8621-3.0513,1.0969-1.142.2483-2.3202.3566-3.5299.361Z"></path>
      <path class="e" d="M.0005,16.0833c-.0135-2.2841.3385-4.3153,1.0969-6.2698,1.0562-2.7309,2.7399-4.9923,5.0871-6.7572,1.4128-1.0608,2.9701-1.8371,4.6538-2.3562C12.716.1222,14.6435-.0719,16.5979.0229c1.1601.0542,2.3112.2031,3.4441.4694,1.8822.4469,3.6381,1.1871,5.2586,2.2479.5191.3385,1.0111.7087,1.4986,1.0923.1039.0812.1083.1309.0361.2392-.8711,1.2368-1.7378,2.4736-2.609,3.7149-.0858.1174-.1715.2347-.2527.3566-.0542.0812-.0903.0858-.1671.0226-.6635-.5462-1.3631-1.0427-2.1215-1.4535-1.124-.6094-2.32-1.0021-3.584-1.1781-1.1691-.1625-2.3427-.2302-3.5208-.1174-2.0222.1941-3.8323.9028-5.4076,2.1847-1.3316,1.0833-2.2975,2.4375-2.934,4.0309-.6635,1.6611-.8712,3.3899-.7583,5.1683.0858,1.3902.3521,2.7354.8937,4.0219.9795,2.3202,2.6,4.0128,4.9427,4.9923,1.2593.5235,2.5729.7674,3.9271.8169.9164.0317,1.8282-.009,2.7308-.1624,1.3451-.2257,2.6-.6997,3.7872-1.3677.9208-.5191,1.7965-1.115,2.7174-1.6295.8125-.4559,1.6475-.8803,2.5458-1.1511.5462-.167,1.1014-.2708,1.6701-.3114.7674-.0542,1.5302-.0181,2.2841.1444.6906.149,1.3451.3972,1.9861.6951.975.4559,1.8597,1.0608,2.7625,1.6431,1.0201.6591,2.0763,1.2548,3.2183,1.6882.9435.3611,1.9185.5823,2.934.5598,1.6295-.0361,3.083-.5688,4.3739-1.5573.1851-.14.1806-.14.3205.0407.9074,1.1736,1.8146,2.3471,2.7264,3.5208.0903.1129.0858.167-.0271.2618-1.1059.9433-2.3381,1.6701-3.6968,2.1846-1.5437.5869-3.1461.8667-4.7982.7991-1.2729-.0542-2.4871-.3793-3.6607-.8713-1.4038-.5913-2.6813-1.4038-3.9497-2.2388-.6996-.4605-1.3992-.9254-2.1756-1.2503-1.2684-.5372-2.5278-.5101-3.7691.0992-.7764.3793-1.4851.8621-2.2027,1.3407-1.3451.8982-2.7716,1.6204-4.3063,2.126-1.0608.3521-2.1486.5869-3.2589.7087-1.1014.1219-2.2073.1219-3.3087.027-1.2819-.1083-2.5413-.3566-3.7646-.7583-2.5323-.8396-4.6989-2.2253-6.4683-4.225-1.3361-1.5121-2.3066-3.2365-2.9611-5.1413-.492-1.4309-.7809-2.8979-.8937-4.4055-.0361-.5011-.0632-1.0021-.0587-1.318Z"></path>
    </g>
  </g>
</svg>
