<?xml version="1.0" encoding="UTF-8"?>
<svg xmlns="http://www.w3.org/2000/svg" id="b" data-name="Layer 2" viewBox="0 0 182.4719 32">
  <defs>
    <style>
      .e {
        fill: #009;
      }

      .e, .f {
        stroke-width: 0px;
      }

      .f {
        fill: #f90;
      }
    </style>
  </defs>
  <g id="c" data-name="groups">
    <g id="d" data-name="EnBW">
      <path class="e" d="M57.7079,16c-1.618-1.7978-2.6966-3.9551-2.6966-6.6517,0-5.2135,4.1348-9.3483,9.3483-9.3483h16.8989v5.573h-16.8989c-1.9775,0-3.7753,1.618-3.7753,3.7753,0,1.9775,1.618,3.7753,3.7753,3.7753h11.1461v5.573h-11.1461c-1.9775,0-3.7753,1.618-3.7753,3.7753,0,1.9775,1.618,3.7753,3.7753,3.7753h16.8989v5.573h-16.8989c-5.2135,0-9.3483-4.1348-9.3483-9.3483,0-2.3371.8989-4.6742,2.6966-6.4719M100.8539,15.1011c1.9775,0,3.7753,1.618,3.7753,3.7753v13.1236h5.573v-13.1236c0-5.2135-4.1348-9.3483-9.3483-9.3483h-15.1011v22.4719h5.573V15.1011h9.5281ZM165.9326,29.3034c1.7978,1.618,4.3146,2.6966,6.8315,2.6966,5.2135,0,9.7079-4.3146,9.7079-9.5281V.1798h-5.573v22.2921c0,1.9775-1.9775,3.9551-3.9551,3.9551s-3.9551-1.7978-3.9551-3.9551v-12.9438h-5.7528v12.9438c0,1.9775-1.9775,3.9551-3.9551,3.9551s-3.9551-1.7978-3.9551-3.9551V.1798h-5.573v22.2921c0,5.2135,4.4944,9.5281,9.7079,9.5281,2.337,0,4.8539-1.0786,6.4719-2.6966M121.5281,5.7528h13.1236c1.9775,0,3.7753,1.618,3.7753,3.7753,0,1.9775-1.618,3.7753-3.7753,3.7753h-7.5506v5.573h7.5506c1.9775,0,3.7753,1.618,3.7753,3.7753,0,1.9775-1.618,3.7753-3.7753,3.7753h-18.8764v5.573h18.6966c5.2135,0,9.3483-4.1348,9.3483-9.3483,0-2.5169-1.0786-4.8539-2.6966-6.6517,1.618-1.7978,2.6966-3.9551,2.6966-6.6517,0-5.2135-4.1348-9.3483-9.3483-9.3483h-18.6966v20.6742h5.573l.1798-14.9213"></path>
      <path class="f" d="M46.2022,18.5169v-4.8539H2.3371c-1.2584,0-2.3371,1.0787-2.3371,2.3371s1.0787,2.3371,2.3371,2.3371h43.8652s0,.1798,0,.1798Z"></path>
    </g>
  </g>
</svg>
