<?xml version="1.0" encoding="UTF-8"?>
<svg xmlns="http://www.w3.org/2000/svg" id="b" data-name="Layer 2" viewBox="0 0 89.6296 32">
  <defs>
    <style>
      .e {
        fill: #e1001a;
      }

      .e, .f, .g, .h, .i, .j {
        stroke-width: 0px;
      }

      .e, .f, .g, .h, .j {
        fill-rule: evenodd;
      }

      .f {
        fill: #fefefe;
      }

      .g {
        fill: #2a9ad1;
      }

      .h {
        fill: #adaca7;
      }

      .i {
        fill: #141412;
      }

      .j {
        fill: rgba(0, 0, 0, .15);
      }
    </style>
  </defs>
  <g id="c" data-name="groups">
    <g id="d" data-name="Local.ch">
      <path class="f" d="M.763,27.022h84.28c3.117,0,3.813-3.382,3.813-3.91V.711H4.576C-.074.711.764,9.784.764,9.784v17.237l-.001.001Z"></path>
      <path class="g" d="M84.661,27.022c2.893,0,4.271-3.35,4.577-4.622,0,0-.005,8.889-4.577,8.889H.763v-4.267h83.898Z"></path>
      <path class="e" d="M75.89,8.243c-.04,2.748-2.46,4.948-5.407,4.912-2.949-.035-5.308-2.29-5.27-5.04.039-2.75,2.457-4.95,5.406-4.915,2.948.037,5.307,2.293,5.27,5.043h.001Z"></path>
      <path class="f" d="M70.434,4.438l1.9.11.322,1.738s1.847.268,1.847.3c.154.616.12,1.785.136,1.77.051-.049-1.881-.254-1.881-.254l-.152,2.26h-1.983l.153-2.323-2.49.128-.036-1.81s1.1-.156,2.44-.156c.043,0-.256-1.763-.256-1.763Z"></path>
      <path class="i" d="M13.805,6.9l3.026-.678v12.876c0,1.49.476,2.377,1.428,2.663-.468.828-1.267,1.241-2.396,1.241-1.372,0-2.058-.887-2.058-2.663V6.9ZM19.486,16.706c0-1.844.568-3.344,1.706-4.503,1.146-1.159,2.655-1.738,4.527-1.738,1.969,0,3.498.557,4.587,1.67,1.09,1.114,1.634,2.637,1.634,4.57,0,1.926-.557,3.457-1.67,4.593-1.106,1.136-2.623,1.704-4.551,1.704-1.969,0-3.502-.571-4.6-1.715-1.089-1.15-1.633-2.678-1.633-4.581ZM22.633,16.706c0,2.663,1.028,3.994,3.086,3.994.944,0,1.69-.346,2.24-1.038.556-.692.834-1.678.834-2.956,0-2.626-1.025-3.939-3.074-3.939-.944,0-1.695.346-2.251,1.038-.557.693-.835,1.66-.835,2.9v.001ZM44.229,11.65l-1.296,2.11c-.71-.624-1.662-.936-2.856-.936-1.146,0-2.053.357-2.723,1.072-.662.707-.993,1.689-.993,2.945,0,2.535,1.295,3.803,3.885,3.803,1.122,0,2.11-.346,2.966-1.038l1.113,2.223c-.879.511-1.65.835-2.311.97-.654.136-1.429.203-2.324.203-2.001,0-3.583-.541-4.745-1.625-1.154-1.09-1.73-2.603-1.73-4.536,0-1.903.633-3.442,1.9-4.615,1.267-1.174,2.993-1.76,5.18-1.76,1.509,0,2.82.394,3.934,1.184ZM53.479,21.57c-.275.42-.755.767-1.44,1.037-.6791.2636-1.4016.3976-2.13.395-1.397,0-2.494-.323-3.293-.97-.799-.655-1.198-1.58-1.198-2.776,0-1.4.56-2.494,1.682-3.284,1.13-.79,2.731-1.185,4.805-1.185.355,0,.775.057,1.26.17,0-1.422-.965-2.133-2.894-2.133-1.137,0-2.09.176-2.856.53l-.654-2.19c1.041-.466,2.28-.699,3.716-.699,1.977,0,3.425.421,4.345,1.264.92.835,1.38,2.422,1.38,4.762v2.584c0,1.61.347,2.622,1.041,3.036-.25.406-.529.654-.835.745-.3414.1025-.6966.1518-1.053.146-.436,0-.827-.15-1.174-.451-.347-.3-.581-.628-.702-.982v.001ZM53.189,17.09c-.517-.099-.904-.147-1.163-.147-2.388,0-3.582.73-3.582,2.189,0,1.083.673,1.625,2.02,1.625,1.816,0,2.724-.847,2.724-2.54v-1.127h.001ZM58.805,6.9l3.026-.678v12.876c0,1.49.476,2.377,1.428,2.663-.468.828-1.267,1.241-2.396,1.241-1.372,0-2.058-.887-2.058-2.663,0,0,0-13.439,0-13.439Z"></path>
      <path class="h" d="M75.128,22.8v-2.594c0-.545-.155-.964-.468-1.256-.311-.291-.75-.438-1.315-.438-.477,0-.853.115-1.125.346v-2.071l-1.072.235v5.778h1.072v-3.023c.0981-.1308.2283-.2341.378-.3.178-.088.353-.132.528-.132.281,0,.508.079.683.236.1748.1597.2703.3884.261.625v2.594h1.058ZM69.069,18.512c-.761,0-1.363.204-1.804.613-.44.409-.662.945-.662,1.607,0,.674.202,1.2.605,1.579.403.378.953.567,1.65.567.313,0,.583-.023.812-.07.229-.048.497-.16.803-.338l-.387-.775c-.2914.2384-.6576.3662-1.034.361-.902,0-1.353-.44-1.353-1.324,0-.437.116-.78.348-1.027.232-.248.547-.372.947-.372.415,0,.747.109.994.326l.451-.734c-.388-.276-.845-.413-1.37-.413ZM65.022,22.932c-.2003.0044-.3944-.0704-.54-.208-.1436-.1275-.2249-.311-.223-.503,0-.197.074-.364.222-.501.1457-.1374.3398-.2117.54-.207.212,0,.392.068.54.207.1433.1264.2247.3089.223.5.0022.1922-.0788.3759-.222.504-.1458.1375-.3397.2122-.54.208Z"></path>
      <path class="j" d="M1.946,1.526c.704-.895,1.682-1.526,3.012-1.526h84.661v20.972l.001.024.003.092c.0112.5227.0082,1.0455-.009,1.568-.034,1.01-.134,2.362-.395,3.718-.259,1.35-.684,2.735-1.387,3.791-.71,1.066-1.733,1.835-3.17,1.835H0V9.09c0-.066,0-.163.003-.287.006-.246.02-.597.05-1.017.062-.84.194-1.965.478-3.094.282-1.124.722-2.282,1.415-3.166ZM.762,9.188v22.101h83.9c1.088,0,1.9-.564,2.522-1.499.628-.943,1.032-2.225,1.285-3.542.252-1.31.349-2.625.383-3.615.0169-.5085.0199-1.0173.009-1.526l-.003-.086v-.022l-.001-.005V.711H4.957c-1.027,0-1.798.473-2.396,1.235-.606.773-1.016,1.824-1.289,2.908-.236.9788-.3895,1.9756-.459,2.98-.0308.4187-.0481.8382-.052,1.258v.096h.001Z"></path>
    </g>
  </g>
</svg>
