<?xml version="1.0" encoding="UTF-8"?>
<svg xmlns="http://www.w3.org/2000/svg" id="b" data-name="Layer 2" viewBox="0 0 131.9491 32">
  <defs>
    <style>
      .g {
        fill: #00765a;
      }

      .g, .h {
        stroke-width: 0px;
      }

      .h {
        fill: #6ab023;
      }
    </style>
  </defs>
  <g id="c" data-name="groups">
    <g id="d" data-name="Sanitas">
      <path id="e" data-name="path2548" class="g" d="M71.0845,0c-2.1675,0-3.7816,1.7328-3.7816,3.9013,0,2.1732,1.7032,3.9013,3.8773,3.9013,2.1694,0,3.9013-1.728,3.9013-3.9013,0-2.1684-1.8247-3.9013-3.997-3.9013ZM7.7307,9.6933c-4.3732,0-7.7307,2.4719-7.7307,6.8452,0,3.5452,2.0325,5.0358,5.5767,6.3186l2.1062.7659c1.8966.6998,2.4413.9459,2.4413,1.8908,0,1.1632-1.3528,1.3164-2.5131,1.3164-2.0172,0-4.806-.6357-6.4862-.9095l-.9095,5.074c1.8659.4299,5.2042.9813,8.018.9813,5.7471,0,8.6642-2.5284,8.6642-6.534,0-2.5064-.8971-5.0128-4.9304-6.5101l-2.4892-.9334c-1.7175-.6424-2.7524-1.0014-2.7524-2.0105,0-.8549.7295-1.2924,2.1062-1.2924,1.8669,0,4.6442.5917,6.2947.9574l.8377-4.8586c-1.8305-.428-4.9946-1.101-8.2334-1.101ZM55.9102,9.7173c-3.5739,0-5.9797,1.7175-7.7547,2.9678l-.6462-2.6088h-5.5049v21.6604h6.9648v-14.0494c.8262-.8578,2.4882-1.6754,3.8055-1.6754,1.3432,0,2.2498.4337,2.2498,2.5131v13.2117h6.9648v-14.5759c0-5.3201-2.2556-7.4435-6.0793-7.4435ZM29.6545,9.813c-3.0856,0-6.2238.3676-8.9753.9813l.8138,4.8586c1.8343-.3657,4.3129-.742,5.9357-.742,2.963,0,3.5423.8023,3.5423,2.7285v.7898c-1.1316-.0325-2.1933-.1197-3.4465-.1197-4.7677,0-8.4727,2.6691-8.4727,7.4675,0,4.4354,3.0578,6.2229,6.3904,6.2229,2.5073,0,4.3704-1.2886,5.9596-2.4174l.5984,2.1541h5.8878v-13.4271c0-6.602-3.7395-8.4966-8.2334-8.4966ZM65.1488,10.0763v5.0022h2.6567v16.6582h7.0127V10.0763h-9.6694ZM28.2184,22.6896c.2035-.0117.4199,0,.6223,0,.7027,0,1.3317.0316,2.1301.0957v2.9918c-1.1019.7352-2.2029,1.101-3.3029,1.101-1.2226,0-2.2259-.5199-2.2259-1.7711,0-1.8731,1.3521-2.3355,2.7764-2.4174Z"></path>
      <path id="f" data-name="path2568" class="h" d="M86.1152,4.1406l-7.0127.9095v21.1578c0,4.312,2.9583,5.7921,5.9835,5.7921,1.5605,0,3.3805-.2355,5.5527-.6941v-4.9783c-1.1613.2451-1.9195.3351-2.6806.3351-1.1919,0-1.8429-.5486-1.8429-2.1062v-9.4779h4.2842v-5.0022h-4.2842v-5.9357ZM122.7823,9.6933c-4.3732,0-7.7547,2.4719-7.7547,6.8452,0,3.5452,2.0267,5.0358,5.5767,6.3186l2.1062.7659c1.8956.6998,2.4413.9459,2.4413,1.8908,0,1.1632-1.326,1.3164-2.4892,1.3164-2.0191,0-4.8069-.6357-6.4862-.9095l-.9334,5.074c1.8678.4299,5.2109.9813,8.018.9813,5.7461,0,8.6881-2.5284,8.6881-6.534,0-2.5064-.921-5.0128-4.9544-6.5101l-2.4652-.9334c-1.7146-.6424-2.7764-1.0014-2.7764-2.0105,0-.8549.7554-1.2924,2.1301-1.2924,1.8649,0,4.6471.5917,6.2947.9574l.8138-4.8586c-1.8324-.428-4.9716-1.101-8.2094-1.101ZM103.7068,9.813c-3.0856,0-6.2507.3676-8.9993.9813l.8377,4.8586c1.8343-.3657,4.2938-.742,5.9117-.742,2.9678,0,3.5423.8023,3.5423,2.7285v.7898c-1.1307-.0325-2.1933-.1197-3.4465-.1197-4.7696,0-8.4727,2.6691-8.4727,7.4675,0,4.4354,3.0597,6.2229,6.3904,6.2229,2.5083,0,4.3713-1.2886,5.9596-2.4174l.6223,2.1541h5.8639v-13.4271c0-6.602-3.7146-8.4966-8.2094-8.4966ZM102.2708,22.6896c.2038-.0117.3955,0,.5984,0,.7008,0,1.3365.0316,2.1301.0957v2.9918c-1.1.7352-2.1809,1.101-3.279,1.101-1.2245,0-2.2498-.5199-2.2498-1.7711,0-1.8731,1.3736-2.3355,2.8003-2.4174Z"></path>
    </g>
  </g>
</svg>
