<?xml version="1.0" encoding="UTF-8"?>
<svg xmlns="http://www.w3.org/2000/svg" id="b" data-name="Layer 2" viewBox="0 0 290 32">
  <defs>
    <style>
      .e {
        fill: #000;
      }

      .e, .f, .g {
        stroke-width: 0px;
      }

      .f {
        fill: #ec0000;
      }

      .g {
        fill: #fff;
      }
    </style>
  </defs>
  <g id="c" data-name="groups">
    <g id="d" data-name="SBB">
      <path class="e" d="M113.4749,12.7777c-.2561-2.3142-1.5422-3.3704-4.1423-3.3704-2.2162,0-3.5939,1.022-3.5939,2.6559,0,1.3637.8635,2.1807,2.6294,2.5193l3.8521.7145c4.1097.7455,6.3259,3.0598,6.3259,6.6041,0,4.4576-3.4059,7.3154-8.7986,7.3154-5.7125,0-8.9851-2.9277-9.0814-8.0687h4.5587c.2887,2.9619,1.6665,4.2247,4.7169,4.2247,2.3454,0,4.0134-1.297,4.0134-3.0986,0-1.4289-.9008-2.3142-2.6341-2.6559l-3.4948-.6787c-4.4655-.8853-6.5235-2.9308-6.5235-6.5699,0-4.1516,3.1483-6.806,8.2847-6.806,5.0401,0,8.1542,2.687,8.2785,7.2129h-4.3909v.0016ZM131.3894,6.0416c4.6827,0,7.3466,2.1123,7.3466,5.784,0,2.0098-.8962,3.5055-2.9821,4.6642,2.662,1.0531,3.7897,2.8268,3.7897,5.753,0,3.9807-2.9572,6.5001-7.6418,6.5001h-10.0801V6.0416h9.5677ZM130.7434,15.1277c2.2799,0,3.5986-.9521,3.5986-2.5534,0-1.8359-1.1913-2.6901-3.6623-2.6901h-4.3645v5.2435h4.4282ZM130.9358,24.8971c2.6654,0,3.9823-.9894,3.9823-3.0286,0-2.1434-1.2858-3.1017-4.2058-3.1017h-4.3956v6.1303h4.619ZM152.5125,6.0416c4.683,0,7.3466,2.1123,7.3466,5.784,0,2.0098-.8962,3.5055-2.9821,4.6642,2.662,1.0531,3.7897,2.8268,3.7897,5.753,0,3.9807-2.9557,6.5001-7.6415,6.5001h-10.1795V6.0416h9.6668ZM151.8665,15.1277c2.2801,0,3.597-.9521,3.597-2.5534,0-1.8359-1.1898-2.6901-3.6607-2.6901h-4.4577v5.2435h4.5214ZM152.0592,24.8971c2.6636,0,3.9823-.9894,3.9823-3.0286,0-2.1434-1.2861-3.1017-4.2091-3.1017h-4.4888v6.1303h4.7156ZM187.8724,20.7424c-.3185,5.2077-3.8909,8.4741-9.2507,8.4741-6.0017,0-9.9561-4.6594-9.9561-11.773,0-7.0825,4.0538-11.8772,10.0493-11.8772,5.141,0,8.5843,3.0287,8.9649,7.828h-4.4313c-.5124-2.586-2.0113-3.8472-4.4997-3.8472-3.3811,0-5.5835,3.0598-5.5835,7.8622,0,4.7325,2.1714,7.8637,5.489,7.8637,2.7444,0,4.271-1.429,4.7557-4.5275h4.4639l-.0015-.0031ZM195.4672,10.1234v5.3429h9.4434v3.9513h-9.4434v9.3238h-4.4699V6.0416h14.8374v4.0817h-10.3675ZM214.1676,10.1234v5.3429h9.5643v3.9513h-9.5643v9.3238h-4.4686V6.0416h14.9648v4.0817h-10.4962ZM239.8323,10.1234v5.3429h9.6606v3.9513h-9.6606v9.3238h-4.5012V6.0416h15.0922v4.0817h-10.5925.0016ZM258.9255,10.1234v5.3429h9.599v3.9513h-9.599v9.3238h-4.5074V6.0416h15.036v4.0817h-10.5286ZM284.9094,12.7793c-.2563-2.3173-1.5406-3.3704-4.1558-3.3704-2.2138,0-3.5991,1.0204-3.5991,2.6559,0,1.3621.87,2.1791,2.6385,2.5162l3.8658.7145c4.1221.7486,6.3412,3.0644,6.3412,6.6072,0,4.4576-3.4179,7.3154-8.8243,7.3154-5.7327,0-9.0107-2.9277-9.1065-8.0687h4.5675c.2874,2.9619,1.6779,4.2247,4.7332,4.2247,2.3537,0,4.0263-1.297,4.0263-3.0986,0-1.4289-.9011-2.3142-2.6385-2.6559l-3.5085-.6787c-4.4795-.8853-6.5354-2.9308-6.5354-6.5699,0-4.1516,3.1486-6.806,8.3013-6.806,5.0543,0,8.1822,2.687,8.309,7.2129h-4.4121l-.0026.0016Z"></path>
      <path class="f" d="M0,0h91.9994v32H0V0Z"></path>
      <path class="g" d="M54.65,26.4348h5.8246l-7.8391-8.0191h9.7308v8.0191h4.5973v-8.0191h9.7339l-7.8437,8.0191h5.8277l9.9822-10.4187-9.9807-10.4529h-5.8277l7.8437,8.0532h-9.7323V5.5648h-4.5973v8.0517h-9.7339l7.8391-8.0517h-5.8246l-9.9869,10.4529,9.9869,10.4172Z"></path>
    </g>
  </g>
</svg>
