<?xml version="1.0" encoding="UTF-8"?>
<svg xmlns="http://www.w3.org/2000/svg" id="b" data-name="Layer 2" viewBox="0 0 164.7003 32">
  <defs>
    <style>
      .e {
        fill: #000;
      }

      .e, .f, .g {
        stroke-width: 0px;
      }

      .f {
        fill: #fff;
      }

      .g {
        fill: #e4002c;
      }
    </style>
  </defs>
  <g id="c" data-name="groups">
    <g id="d" data-name="Search.ch">
      <path class="e" d="M3.5247,14.2745c.1486.4485.4247.8277.8238,1.138.3991.3104.9748.5683,1.7242.7751.7514.2073,1.7262.3616,2.9259.4647,1.766.1727,3.223.4558,4.3739.853,1.1505.3958,2.0491.9042,2.6987,1.5249.6501.619,1.1022,1.3428,1.3508,2.169.2504.8275.3752,1.7769.3752,2.8422,0,.9999-.1685,1.9728-.5007,2.9201-.3341.9493-.8912,1.8005-1.6751,2.5594-.7824.7586-1.8168,1.3608-3.0982,1.8073-1.2852.4465-2.8753.6719-4.7756.6719-.6008,0-1.2503-.0348-1.9491-.1036-.7008-.0687-1.3939-.1636-2.0747-.2847-.6839-.1201-1.3246-.2579-1.9253-.4122-.5989-.1543-1.1003-.3179-1.4994-.4921v-3.0996c.7661.2756,1.7567.5423,2.9746.8,1.2164.2599,2.7246.3886,4.5251.3886,1.2995,0,2.3738-.1288,3.2231-.3886.8512-.2578,1.5246-.6094,2.0259-1.0597.5009-.4465.8494-.9454,1.0487-1.4976.2016-.5496.2997-1.1359.2997-1.7568,0-.5863-.0581-1.1291-.1742-1.628-.118-.4991-.3741-.9381-.775-1.3178-.3991-.379-.9748-.6969-1.7242-.9561-.7494-.2579-1.7424-.4397-2.9746-.5428-1.8005-.1709-3.2762-.4559-4.4253-.8512-1.1485-.3958-2.0415-.8968-2.6753-1.4994-.6314-.6027-1.0654-1.2834-1.2992-2.042-.2323-.7565-.3485-1.5844-.3485-2.4807,0-.9293.1561-1.8498.4735-2.7646.3178-.9125.8331-1.7313,1.55-2.4538.7151-.7238,1.6754-1.3082,2.8751-1.7585,1.1997-.4465,2.6805-.6714,4.4485-.6714,1.167,0,2.3831.0962,3.6496.2848,1.267.1904,2.4506.5263,3.5484,1.0073v3.1c-.9656-.3428-1.9983-.6263-3.0982-.8512-1.0979-.2234-2.4831-.3359-4.1492-.3359-1.234,0-2.2413.1125-3.0238.3359-.7857.2249-1.3939.5334-1.8257.9293-.4339.3973-.7331.8712-.9004,1.421-.1668.5519-.2505,1.1384-.2505,1.7573,0,.5514.0762,1.0524.2272,1.4988Z"></path>
      <path class="e" d="M60.2448,11.3288c-.1835-.6877-.4991-1.256-.9492-1.7043-.4502-.4479-1.0599-.775-1.826-.9817-.7658-.2069-1.7332-.3105-2.8984-.3105-1.7005,0-3.1326.1292-4.3017.3866-1.1672.2579-2.2325.5608-3.198.9057v-3.1014c1.0997-.4828,2.3249-.8349,3.6733-1.0585,1.3508-.2231,2.6248-.3372,3.8264-.3372,1.8655,0,3.4066.2067,4.6227.6207,1.2177.4135,2.1832,1.0073,2.9002,1.7823.717.7765,1.2159,1.6894,1.4994,2.7386.2829,1.0509.4266,2.2306.4266,3.5409v17.6744h-3.4505v-1.9618s-2.9164,2.4775-6.6991,2.4775c-1.6336,0-3.0164-.2322-4.1491-.6969-1.1341-.4664-2.049-1.0766-2.7497-1.8352-.7002-.7565-1.1997-1.6444-1.5008-2.6606-.2997-1.0167-.4484-2.0584-.4484-3.1275,0-.9638.1162-1.8948.3485-2.791.2324-.8951.6663-1.7044,1.3016-2.4287.6314-.7224,1.517-1.3521,2.6735-1.833,1.9784-.8243,5.0872-.9837,7.5503-1.0221l3.6228.0328v-1.8803c0-.9293-.0912-1.7386-.2742-2.4286ZM50.9953,19.0552c-.6441.3415-1.1579.7333-1.5245,1.2145-.3686.4828-.6078,1.0162-.7257,1.6027-.1162.5859-.1742,1.1885-.1742,1.8073,0,.5865.058,1.1817.1742,1.7842.118.6027.3666,1.1548.7495,1.6518.3846.501.9255.9056,1.6261,1.2161.6988.3084,1.65.4647,2.8497.4647,1.3666,0,2.5318-.1817,3.4992-.543.9673-.3609,1.982-.869,3.0494-1.5244v-8.3834l-3.5796-.0218c-2.2215.0325-4.8132.1344-5.944.7313Z"></path>
      <path class="e" d="M85.2953,13.3201c.2992-1.6373.8493-3.0586,1.6498-4.2654.8002-1.2051,1.8837-2.16,3.2506-2.8676,1.3646-.7062,3.0982-1.058,5.198-1.058,1.2339,0,2.5086.0944,3.8262.283,1.3159.1904,2.5225.5263,3.6242,1.0073v3.1c-.9674-.3428-2.0179-.6263-3.1508-.8512-1.1322-.2234-2.5828-.3359-4.3485-.3359-1.5661,0-2.8189.2924-3.75.8788-.9325.5859-1.6425,1.3609-2.1253,2.325-.4827.9635-.7913,2.0578-.9236,3.2811-.1344,1.2235-.2017,2.4724-.2017,3.7483,0,1.2741.0673,2.5225.2017,3.746.1323,1.2215.4409,2.3176.9236,3.2817.4828.9636,1.1929,1.7405,2.1253,2.3246.9311.5863,2.1839.8787,3.75.8787,1.7657,0,3.2163-.1106,4.3485-.3359,1.1329-.2232,2.1834-.5078,3.1508-.8528v3.0998c-1.1016.4827-2.3083.8187-3.6242,1.009-1.3176.1893-2.5923.2836-3.8262.2836-2.0998,0-3.8334-.3523-5.198-1.0604-1.3669-.7039-2.4504-1.6607-3.2506-2.8658-.8005-1.2067-1.3507-2.6281-1.6498-4.265-.2997-1.6357-.4503-3.3849-.4503-5.2434,0-1.8622.1506-3.6102.4503-5.2453Z"></path>
      <path class="e" d="M124.201,7.1438c-1.3341-1.3451-3.4992-2.0147-6.4994-2.0147-1.1672,0-2.3324.1724-3.4992.5153-1.1672.3467-2.2831.8786-3.3486,1.6024V0h-3.4015v31.4841h3.4015V9.986c.9311-.5503,1.8985-.9637,2.8984-1.2416.9999-.2741,2.3158-.4122,3.9494-.4122,1.5663,0,2.7915.3105,3.6735.9293.8841.6209,1.3269,1.7751,1.3269,3.463v18.7596h3.4992V12.8806c0-3.1744-.6681-4.3941-2.0002-5.7368Z"></path>
      <path class="e" d="M83.6579,5.9511c-1.0417-.6407-2.4427-.7257-3.7004-.7257-3.2018,0-5.0605,1.2977-6.184,2.0215v-2.0596h-3.3411v26.297h3.3974V10.1223c.9349-.6683,2.9696-1.9841,6.1202-1.9678,1.3777.0074,2.543.1435,3.7079.6606v-2.864Z"></path>
      <path class="e" d="M41.554,18.5654v-.1417c0-1.866.0142-3.6192-.1851-5.2583-.2017-1.6407-.6281-3.0653-1.2778-4.2743-.6534-1.2084-1.6044-2.1671-2.8589-2.8746-1.2521-.7082-2.9472-1.0618-5.0853-1.0618-2.1035,0-3.8423.3536-5.2129,1.0618-1.3702.7075-2.4464,1.6661-3.2308,2.8746-.7857,1.2089-1.3264,2.6336-1.6297,4.2743-.3011,1.6391-.4498,3.3923-.4498,5.2583,0,1.8641.1487,3.6172.4498,5.256.3034,1.6411.8441,3.0657,1.6297,4.2727.7845,1.2103,1.8606,2.169,3.2308,2.8766,1.3706.7063,3.1094,1.0616,5.2129,1.0616,1.2358,0,2.5717-.0961,4.0092-.2847,1.4377-.1907,2.8567-.6134,4.2599-1.2685v-3.1094c-1.2362.5538-2.4719.933-3.7082,1.1397-1.2379.2073-2.7569.3104-4.5609.3104-1.4029,0-2.5556-.2324-3.4575-.6988-.9024-.4664-1.603-1.096-2.1058-1.891-.5008-.7932-.8655-1.7061-1.0504-2.7461-.3923-2.1851-.4122-3.6864-.4047-4.7768h16.4255ZM26.5349,10.9114c.5008-.8292,1.2033-1.4919,2.1033-1.9946.9043-.499,2.071-.7512,3.5087-.7512,1.4356,0,2.5554.2523,3.3579.7512.8018.5027,1.4027,1.1654,1.8038,1.9946.4014.8295.6424,1.788.7261,2.8748.0524.6881.0837,1.3925.1036,2.1002h-12.9268c.0599-.7262.1419-1.4413.2705-2.1272.1997-1.069.5519-2.0182,1.0529-2.8477Z"></path>
      <path class="g" d="M133.2034,31.4972h31.497V0h-31.497v31.4972Z"></path>
      <path class="f" d="M136.7024,28.0011h1.7061v-1.7044h-1.7061v1.7044Z"></path>
      <path class="f" d="M144.7049,15.5818c-.9762,0-1.8604.1686-2.501.5008-.6389.3341-1.1504.7913-1.5245,1.3615-.3759.5714-.635,1.2484-.7731,2.0142-.1398.7586-.2087,1.5866-.2087,2.4593,0,.8767.0688,1.7044.2087,2.4612.1381.7663.3972,1.4433.7731,2.0145.3759.5721.8876,1.0293,1.5245,1.3578.6389.3339,1.523.5026,2.501.5026.5646,0,1.1616-.0435,1.775-.1323.6156-.0888,1.1853-.2487,1.6937-.4753l.0362-.0168v-1.577l-.0799.0288c-.4428.1599-.9313.2922-1.4484.3958-.519.1036-1.1923.1561-2.0021.1561-.7114,0-1.2829-.1361-1.7005-.4026-.4229-.2672-.7476-.6228-.9638-1.0604-.2179-.4411-.3591-.9493-.421-1.51-.0617-.566-.0924-1.1523-.0924-1.7425,0-.5879.0308-1.1742.0924-1.7405.0619-.5608.2031-1.0686.421-1.51.2179-.4392.5409-.7949.9618-1.0618.4215-.2667.9949-.4009,1.7024-.4009.8117,0,1.485.0524,2.0021.1561.5209.105,1.0073.238,1.4484.3955l.0799.0292v-1.5773l-.0362-.0164c-.5122-.2267-1.08-.3866-1.6937-.4751-.6095-.0893-1.2067-.1343-1.775-.1343Z"></path>
      <path class="f" d="M150.7015,12.7881v15.2242h1.75v-10.0626c.3591-.2467.7967-.4316,1.2414-.5552.4535-.1269,1.0635-.1907,1.8111-.1907.71,0,1.2708.1419,1.6643.4229.3902.2759.5339.8025.5339,1.5626v8.8229h1.7949v-8.7481c0-1.1728-.3179-2.0876-.9437-2.7247-.6244-.6351-1.6518-.9579-3.0494-.9579-.5426,0-1.0924.0817-1.6369.2449-.5045.1486-1.0003.3809-1.4232.6914v-3.7297h-1.7425Z"></path>
    </g>
  </g>
</svg>
