<?xml version="1.0" encoding="UTF-8"?>
<svg xmlns="http://www.w3.org/2000/svg" id="b" data-name="Layer 2" viewBox="0 0 93.0821 32">
  <defs>
    <style>
      .e {
        fill: #ef7c00;
      }

      .e, .f {
        stroke-width: 0px;
      }

      .f {
        fill: #000;
      }
    </style>
  </defs>
  <g id="c" data-name="groups">
    <g id="d" data-name="SIXT">
      <path class="f" d="M80.9104,28.6116c0,.511.1654.8913.4993,1.1382.334.2467.7579.3716,1.2748.3716.1712,0,.3455-.0145.5225-.0464.1743-.032.3455-.0843.5052-.1597.1597-.0755.2904-.18.3862-.3136.0958-.1335.1453-.299.1453-.4994,0-.183-.0494-.3367-.1453-.4646-.0987-.1249-.2293-.2323-.392-.3194-.1655-.087-.3455-.1626-.54-.2235-.1946-.0609-.4559-.1307-.787-.2062-.2177-.0609-.389-.1074-.5167-.1365-.3515-.0986-.6621-.2032-.9321-.3077-.27-.1074-.5139-.2469-.7345-.4182-.2239-.1744-.4046-.3979-.5285-.6532-.1307-.2643-.1974-.5778-.1974-.9437,0-.4036.0842-.7636.2526-1.0772.1652-.3089.3998-.5752.6852-.7782.2874-.2061.6098-.36.9669-.4646.3542-.1016.7201-.1539,1.0945-.1539.4356,0,.8449.0494,1.2311.1481.3862.0988.7259.2555,1.0221.4704.2962.2149.5285.4878.7027.8247.1713.3367.2584.7317.2584,1.1905h-1.7072c-.0232-.4588-.1743-.7782-.4559-.9611-.2816-.1828-.6562-.2758-1.1295-.2758-.3281,0-.6127.0755-.8536.2294-.2411.1538-.3601.3862-.3601.6997,0,.1597.029.2874.0901.3833.0609.0958.1654.18.3135.2526.1511.0726.3485.1481.5952.2236.2469.0754.6505.1858,1.2137.3309.0232,0,.0813.0146.18.0465.0232.0087.0436.0116.0669.0116.27.0697.5167.1451.7404.2294.2236.0842.4617.2119.7085.3832.2467.1713.4529.4036.6185.6997.1655.2934.2467.6475.2467,1.0599,0,.7781-.2932,1.4111-.8768,1.896-.5836.485-1.4025.7259-2.4593.7259-.4559,0-.8884-.0581-1.2979-.1713s-.7724-.2932-1.0888-.5313c-.3192-.2414-.5769-.5548-.752-.9147-.183-.3688-.2759-.7985-.2759-1.2891h1.7103v-.0058ZM86.9962,23.15h5.9958v1.5127h-4.2333v1.7508h3.885v1.3967h-3.885v2.0035h4.3235v1.5127h-6.0859v-8.1764ZM59.8509,13.0601l-3.49,4.9011,8.0632,11.7943V13.0601h-4.5732ZM35.7281,14.0532v15.1042l7.6103-11.3035-3.5684-4.6747c2.9819-.8217,5.688-2.0964,8.0486-3.943l2.2996,2.9123,4.364-6.5911h24.7935v7.4825h-5.5777v18.2603l-19.2186.0058-4.9187-7.3488-5.1131,7.3488h-18.0775v-5.0232c-1.3007,3.5541-5.4006,5.7172-13.5363,5.7172C.7694,32,.1829,27.7346,0,22.8509h9.5411c.0319,1.4576.2758,2.5144.8624,3.2084.6156.694,1.446,1.0569,2.677,1.0569,1.9396,0,4.0331-.5459,4.0331-2.6597,0-.4733-.1539-.874-.4007-1.2021-1.263-1.6783-11.8814-2.9152-14.8662-6.0133-1.1992-1.2398-1.5708-3.098-1.5708-4.5933C.2758,6.8901,4.7386,4.3001,13.6351,4.3001c9.4481,0,11.6867,3.3072,11.8087,8.7397h-9.1869c-.0609-1.4576-.4994-2.5958-1.1382-3.1243-.6185-.511-1.1556-.7462-2.0963-.7288-1.9687.0378-3.0168.874-3.0168,2.2241,0,.4007.122.9117.4007,1.2021,1.446,1.6404,11.7274,2.8078,14.6804,5.9407.4704.4965.9466,1.144,1.2863,2.0412v-6.0655c3.0487.1132,6.2252.0145,9.3551-.4762Z"></path>
      <path class="e" d="M26.3991,5.5458c9.5411.7027,14.9156-1.9976,16.7593-5.5458h9.7443c-2.9297,8.4726-12.0671,13.7802-26.5007,13.0543v-7.5085h-.003Z"></path>
    </g>
  </g>
</svg>
