<?xml version="1.0" encoding="UTF-8"?>
<svg xmlns="http://www.w3.org/2000/svg" xmlns:xlink="http://www.w3.org/1999/xlink" id="b" data-name="Layer 2" viewBox="0 0 118.5092 32">
  <defs>
    <style>
      .l {
        fill: #015;
      }

      .l, .m, .n, .o, .p, .q, .r, .s, .t {
        stroke-width: 0px;
      }

      .m {
        fill: #fff;
      }

      .n {
        fill: url(#e);
      }

      .o {
        fill: url(#f);
      }

      .p {
        fill: url(#j);
      }

      .q {
        fill: url(#i);
      }

      .r {
        fill: url(#h);
      }

      .s {
        fill: url(#g);
      }

      .t {
        fill: url(#k);
      }
    </style>
    <linearGradient id="e" x1="-528.7367" y1="1106.4363" x2="-531.6948" y2="1117.7228" gradientTransform="translate(539 1135.2826) scale(1 -1)" gradientUnits="userSpaceOnUse">
      <stop offset="0" stop-color="#350706"></stop>
      <stop offset=".36" stop-color="#3f0808"></stop>
      <stop offset=".98" stop-color="#5b0c0e"></stop>
      <stop offset="1" stop-color="#5c0c0e"></stop>
    </linearGradient>
    <radialGradient id="f" cx="-159.6183" cy="1017.7587" fx="-159.6183" fy="1017.7587" r="1.2645" gradientTransform="translate(809.3049 5098.7048) scale(5.0037 -5.0037)" gradientUnits="userSpaceOnUse">
      <stop offset="0" stop-color="#003789"></stop>
      <stop offset="1" stop-color="#5fc7ff" stop-opacity=".98"></stop>
    </radialGradient>
    <radialGradient id="g" cx="-143.8028" cy="1012.6954" fx="-143.8028" fy="1012.6954" r="1.2645" gradientTransform="translate(873.8998 6054.8174) scale(5.9737 -5.9737)" gradientUnits="userSpaceOnUse">
      <stop offset="0" stop-color="#ec0a1c"></stop>
      <stop offset="1" stop-color="#bb0e15"></stop>
    </radialGradient>
    <radialGradient id="h" cx="-109.9574" cy="1001.4864" fx="-109.9574" fy="1001.4864" r="1.2645" gradientTransform="translate(1150.0489 10291.759) scale(10.2605 -10.2605)" gradientUnits="userSpaceOnUse">
      <stop offset="0" stop-color="#5bc0ff" stop-opacity=".98"></stop>
      <stop offset="1" stop-color="#003789"></stop>
    </radialGradient>
    <radialGradient id="i" cx="-135.3228" cy="1009.3354" fx="-135.3228" fy="1009.3354" r="1.2645" gradientTransform="translate(912.4043 6786.8519) scale(6.7031 -6.7031)" gradientUnits="userSpaceOnUse">
      <stop offset="0" stop-color="#42b4f3" stop-opacity=".98"></stop>
      <stop offset="1" stop-color="#003a80"></stop>
    </radialGradient>
    <radialGradient id="j" cx="-103.799" cy="999.5562" fx="-103.799" fy="999.5562" r="1.2645" gradientTransform="translate(1245.5228 11849.1117) scale(11.8433 -11.8433)" gradientUnits="userSpaceOnUse">
      <stop offset="0" stop-color="#5fc7ff"></stop>
      <stop offset="1" stop-color="#003785" stop-opacity=".98"></stop>
    </radialGradient>
    <radialGradient id="k" cx="-98.5138" cy="997.8253" fx="-98.5138" fy="997.8253" r="1.2645" gradientTransform="translate(1351.8068 13667.4096) scale(13.689 -13.689)" gradientUnits="userSpaceOnUse">
      <stop offset="0" stop-color="#ec0a1c"></stop>
      <stop offset="1" stop-color="#9e0d18"></stop>
    </radialGradient>
  </defs>
  <g id="c" data-name="groups">
    <g id="d" data-name="Swisscom">
      <path class="l" d="M77.7049,12.7741c-.7655-.2894-1.5726-.4536-2.3904-.4862-.9097,0-1.6217.2384-1.6217,1.0665,0,1.9575,5.0378.7529,5.0378,4.7807,0,2.7259-2.2114,3.7642-4.7054,3.7642-1.1317-.002-2.2571-.1689-3.3407-.4957l.1976-2.3902c.9779.3221,1.9953.5088,3.024.5552.9662,0,1.7566-.3137,1.7566-1.145,0-2.0955-5.0348-.7529-5.0348-4.7617,0-2.5096,2.1112-3.5353,4.4418-3.5353,1.0743-.0128,2.1432.1548,3.1621.4957l-.527,2.1519ZM68.4982,12.7741c-.7649-.2879-1.5707-.452-2.3872-.4862-.9097,0-1.6405.2384-1.6405,1.0665,0,1.9575,5.0566.7529,5.0566,4.7807,0,2.7259-2.2303,3.7642-4.7054,3.7642-1.1438-.0048-2.2814-.1717-3.3784-.4957l.2165-2.3902c.9846.3212,2.0081.5079,3.0427.5552.9411,0,1.7379-.3137,1.7379-1.145,0-2.0955-5.0566-.7529-5.0566-4.7617,0-2.5096,2.133-3.5353,4.4418-3.5353,1.0874-.01,2.1692.1574,3.2027.4957l-.5301,2.1519ZM115.0344,10.1077c2.1951,0,3.4748,1.1858,3.4748,3.7643v7.7826h-2.9235v-7.1709c0-1.1637-.3351-1.9354-1.5682-1.9354s-2.3308,1.0853-2.3308,3.0397v6.0855h-2.8607v-7.1898c0-1.0853-.3576-1.9354-1.603-1.9354-1.3018,0-2.3088,1.2045-2.3088,3.1588v5.9601h-2.9611v-11.3209c1.9322-.2385,2.6631.5521,2.7447,1.8162.3419-.6356.8533-1.1642,1.4773-1.527.6242-.3627,1.3364-.5452,2.0581-.5277,2.0326,0,2.842,1.1261,3.1369,2.1959.4925-1.123,1.7566-2.1959,3.6733-2.1959h-.0089ZM55.4832,10.3462c-.6273,3.3564-2.2523,8.6515-3.278,11.3178h-3.0804l-2.1739-7.5284h-.0377l-2.1739,7.5284h-3.0615c-.9882-2.6287-2.7668-8.0993-3.278-11.3178h2.9016l1.9166,7.7826h.0408l2.29-7.7826h2.9047l2.2303,7.723h.0408l1.9354-7.723h2.8232ZM36.6619,12.7741c-.7655-.2894-1.5726-.4536-2.3902-.4862-.9098,0-1.5999.2384-1.5999,1.0665,0,1.9575,5.0191.7529,5.0191,4.7807,0,2.7259-2.2114,3.7642-4.7054,3.7642-1.1307-.0018-2.2552-.1687-3.3376-.4957l.1756-2.3902c.9846.3212,2.0081.5079,3.0428.5552.9661,0,1.7566-.3137,1.7566-1.145,0-2.0955-5.0191-.7529-5.0191-4.7617,0-2.5096,2.1112-3.5353,4.4418-3.5353,1.0742-.011,2.1428.1565,3.1621.4957l-.5459,2.1519ZM94.7288,21.8993c-3.2185,0-5.4707-1.7566-5.4707-5.7059,0-3.5353,2.3715-6.0856,5.8065-6.0856,3.1996,0,5.2731,1.8006,5.2731,5.6464,0,3.6953-2.2492,6.142-5.6088,6.142v.0032ZM94.848,12.6016c-1.3018,0-2.5472.9661-2.5472,3.4505,0,2.1519.8093,3.3565,2.5095,3.3565,1.443,0,2.5503-1.1638,2.5503-3.4506,0-2.1959-.7905-3.3564-2.5095-3.3564h-.0032ZM56.807,21.6671h2.9047v-11.3209c-1.3645-.1381-2.9047.2384-2.9047,2.3714v8.9496ZM58.3943,8.9252c.2423.0083.4838-.0317.7104-.1181.2266-.0862.4337-.217.609-.3845.1754-.1674.3155-.3682.4121-.5906.0967-.2223.1479-.4618.1507-.7042-.0196-.4715-.2206-.9172-.5612-1.244-.3405-.3267-.7942-.5091-1.2661-.5091s-.9256.1823-1.2661.5091c-.3405.3267-.5416.7725-.5612,1.244.0048.4709.1923.9215.523,1.2569.3307.3353.7785.5292,1.2494.5406ZM85.4938,21.8616c-3.3596,0-5.5523-1.6782-5.5523-5.6871,0-3.4004,1.8822-6.026,6.004-6.026.9423.0016,1.8776.1619,2.7668.4737l-.6274,2.3715c-.6541-.2576-1.3487-.3978-2.0515-.4141-2.1143,0-2.9831,1.3802-2.9831,3.4506,0,2.017.7904,3.3596,2.8639,3.3596.7892-.0068,1.5686-.1755,2.29-.4957l.3356,2.3307c-.5646.3608-1.7691.6368-3.0333.6368h-.0125Z"></path>
      <path class="m" d="M10.6855,8.2255c-.3595.0424-.7008.1815-.9874.4025-.2867.2209-.5081.5155-.6406.8523-.2887.6431-.4455,1.352-.8689,1.9292-.8783,1.2045-3.1557.9223-3.504,2.5754-.5112,2.428,2.6476,2.9393,3.5855,4.6301.687,1.2547.3513,3.1839,1.65,4.0591.1985.1302.4168.2276.6461.2886.0402.0111.0811.0195.1224.0252l-.0032-14.7622Z"></path>
      <path class="n" d="M10.6887,22.9939l-.1224-.025c-.2304-.0609-.4496-.1584-.6493-.2887-1.2987-.8751-.963-2.8232-1.6468-4.0591-.2429-.4016-.5628-.7512-.9411-1.0289l-.0344-.0282c-.1506.1505-.3734.3858-.734.7465-.2803.2861-.5433.5889-.7874.9065.8394.8457,1.5384,1.8198,2.0703,2.886.6274,1.4084.7967,2.9423,1.2861,4.3916.1639.544.4093,1.0601.7278,1.5308.2052.3069.495.5476.8343.6932v-5.7404l-.003.0157Z"></path>
      <path class="o" d="M9.1453,5.1326c.138.1505.3137.3324.4705.4955.1568.1631.3701.3828.5991.6023.1412.1349.3137.3137.4612.4392V.0352c-.1538-.0311-.3109-.0416-.4673-.0314-.3954.0224-.7855.1028-1.1575.2384-.3323.1162-.6413.2904-.9128.5145-.3061.2484-.5186.5935-.6024.9787-.0845.5375.008,1.088.2635,1.5685.1557.3302.3415.6451.5552.941,0,0,.1569.1913.2447.2886.1788.182.3639.3891.5459.5992Z"></path>
      <path class="s" d="M19.7322,10.2645c-.0775-1.0048-.3313-1.988-.7497-2.9047-.3683-.79-.8715-1.5097-1.4869-2.1268-.0596-.0597-.1223-.1224-.1851-.1788-.3452-.3227-.719-.6135-1.1167-.8689-.3916-.2514-.8041-.4686-1.2329-.6493-.706-.2979-1.4543-.483-2.2178-.549-.7017-.0802-1.4119.0281-2.0578.3137v3.3565c.3764.3449.8281.7591,1.0571.963.1601.1411.3137.276.4737.414l.4675.3921.4862.411c.2008.1694.9222.7529,1.0069.8249l.1412.113,1.8225,1.4774.0408.0314c.2447.1976,1.5024,1.2109,2.1205,1.7409.6179.5302,1.0821.9411,1.1261.9882.122-.5508.2132-1.1079.2729-1.6688.0725-.6909.0829-1.3869.0314-2.0797Z"></path>
      <path class="r" d="M23.6847,19.9984c-.2195-.8248-.5666-1.6102-1.0289-2.3276-.654-1.003-1.419-1.929-2.2805-2.7605-.3137-.3137-.6274-.5959-.9411-.894-.0314.1411-.1098.4768-.2666.9882-.0816.2666-.229.7057-.2855.872-.0847.2415-.2478.6745-.3576.941-.1506.3921-.389.9411-.6023,1.3991-.3074.6587-.48.9724-.8219,1.5998-.1536.2792-.2854.5457-.4767.8783-.0659.1129-.1349.2322-.2165.3639-.0345.0532-.4298.6932-.4705.7654-.0785.1223-.1663.2635-.2196.3419-.4737.7245-.5144.7591-.5897.8658-.1756.2384.0627-.0879-.2697.3796l-.7874,1.1105c-.1161.16-.5082.6743-.941,1.2107-.433.5365-.8784,1.1231-1.0759,1.3583l-1.3835,1.6312v3.278c.5836-.047,1.192-.1286,1.8163-.2415.7991-.1495,1.5888-.3453,2.3652-.5866.6803-.2122,1.3483-.4614,2.0014-.7465.5866-.2564,1.1584-.5455,1.7127-.8658.7118-.4111,1.3857-.8845,2.0138-1.4147.707-.5956,1.3306-1.2834,1.854-2.0453.5464-.7965.9477-1.6833,1.1857-2.6194.135-.5351.215-1.0828.2384-1.6343.032-.6209-.0262-1.2432-.1725-1.8475Z"></path>
      <path class="q" d="M9.8541,28.0412c-.3185-.4705-.5638-.9867-.7277-1.5308-.4893-1.4617-.6463-2.9957-1.2862-4.3916-.5313-1.0657-1.2292-2.0398-2.0672-2.8859-.2205.286-.4227.5856-.6054.8971-.1659.2843-.3045.5837-.414.894-.057.1758-.1032.3549-.1381.5364-.0352.1864-.0561.3752-.0627.5647-.0086.2444.0061.4892.0439.7309.0429.2669.1101.5294.2008.7842.1178.3272.2669.6425.4455.941l.0784.1286c.3692.5935.819,1.133,1.3363,1.603.2916.2695.5985.522.9191.756.2164.1536.436.3137.6618.4423.3137.1882.6118.3638.9253.527.4266.2195,1.0979.5237,1.5277.6963-.3405-.1452-.6315-.3859-.8376-.6933Z"></path>
      <path class="p" d="M19.4278,14.0131c-.0439-.0408-.5489-.4957-1.1261-.9882-.5771-.4924-1.882-1.5433-2.1205-1.7409l-.0407-.0314-1.8226-1.4744c-.0689-.0532-.116-.0941-.1411-.1161-.0847-.0689-.8062-.6525-1.0069-.8218l-.4862-.4078-.4643-.3859c-.1694-.138-.3137-.2729-.4768-.4171-.229-.2008-.6807-.6274-1.0571-.9599-.1443-.1349-.3137-.3137-.458-.4361-.229-.2195-.4046-.3951-.5991-.6023-.1945-.207-.3326-.3451-.4705-.4955-.1946-.2102-.3796-.4173-.5459-.6118l-.1882-.2195c.1098.1788.3388.5081.4548.6713.3136.4642.254.367.5677.8375.2133.3137.5741.8971.7717,1.2297.0254.0415.0484.0845.0689.1286.1218.2272.2266.4632.3137.7058.0419.1109.0683.227.0784.3451v20.5088l1.3835-1.6312c.1976-.2352.6493-.8093,1.0759-1.3583.4266-.5489.8093-1.0508.941-1.2107l.7874-1.1231c.3324-.4673.0941-.1411.2697-.3795.0754-.1067.1161-.1412.5897-.8658l.2196-.3419c.0407-.0722.436-.7122.4705-.7685.0816-.1286.1506-.2478.2165-.3608.1913-.3326.3136-.5991.4767-.8783.3419-.6274.5082-.9411.8156-1.5936.2133-.4642.4518-1.0101.6024-1.399.1098-.2729.2729-.709.3544-.941.0596-.1694.207-.6054.2886-.8721.1569-.5144.2353-.8501.2667-.9912l-.0095-.0032Z"></path>
      <path class="t" d="M5.7699,19.2172c.2442-.3176.5071-.6204.7874-.9066.3608-.3608.5834-.5929.734-.7465-1.2547-.9882-2.9957-1.7284-2.6067-3.5729.3482-1.6532,2.6255-1.3708,3.5039-2.5755.4235-.5771.5804-1.2861.8689-1.9291.1325-.3369.3539-.6315.6406-.8524.2868-.221.6279-.36.9874-.4024-.0099-.1192-.0362-.2363-.0784-.3482-.0866-.2419-.1914-.4767-.3137-.7027-.0199-.0455-.0429-.0895-.0689-.1318-.1976-.3294-.5584-.9066-.7717-1.2297-.3137-.4705-.2447-.3733-.5677-.8344-.1161-.1662-.3451-.4955-.455-.6743-.0205-.0216-.0393-.0446-.0564-.069-.2143-.2955-.4002-.6106-.5552-.941l-.0816-.1976-1.0164.7529c-.8031.5896-1.6123,1.1732-2.3934,1.7911-.5145.4046-1.0195.8249-1.5026,1.2547-.4776.4288-.9252.8899-1.3395,1.3802C.7101,9.2231.0985,10.277.0106,11.4815c-.0142.1964-.0142.3935,0,.5897.0116.2109.0389.4206.0816.6274.1517.7302.467,1.4167.9222,2.0076.5097.6511,1.0882,1.2452,1.7253,1.7723l.3137.2792c.7372.6274,1.4869,1.2547,2.1958,1.9449.2008.1883.3921.3859.5836.5866l-.0597-.0659-.0032-.0062Z"></path>
    </g>
  </g>
</svg>
