<?xml version="1.0" encoding="UTF-8"?>
<svg xmlns="http://www.w3.org/2000/svg" id="b" data-name="Layer 2" viewBox="0 0 41.8471 32">
  <defs>
    <style>
      .g {
        fill: #0095d8;
        stroke-width: 0px;
      }
    </style>
  </defs>
  <g id="c" data-name="groups">
    <g id="d" data-name="ThyssenKrupp">
      <path id="e" data-name="path7" class="g" d="M28.6852,7.3497c-.0662-4.064-3.3904-7.3497-7.4695-7.3497s-7.4033,3.2862-7.4695,7.3497c-2.6383,1.1549-4.4866,3.7889-4.4866,6.8482,0,4.1205,3.352,7.4724,7.4724,7.4724,1.6808,0,3.2339-.5585,4.4836-1.4986,1.2498.9402,2.8028,1.4986,4.4836,1.4986,4.1205,0,7.4729-3.3524,7.4729-7.4724-.0004-3.0588-1.8491-5.6933-4.487-6.8482ZM24.1716,13.5117c-.1729-1.8871-1.0494-3.573-2.3654-4.7928.7774-.5538,1.6762-.9465,2.6488-1.1291.6601,1.2418,1.2683,2.7497,1.807,4.3208-.5821.6618-1.2915,1.2089-2.0904,1.6011ZM21.2157,19.2054c-1.2801-1.1473-2.1187-2.7766-2.2283-4.5996.704.2202,1.4526.3395,2.2283.3395s1.5244-.1189,2.2283-.3395c-.1101,1.8234-.9486,3.4524-2.2283,4.5996ZM16.1689,11.911c.5386-1.5712,1.1464-3.0791,1.807-4.3208.9726.1826,1.8719.5753,2.6488,1.1291-1.316,1.2198-2.1929,2.9057-2.3654,4.7928-.7989-.3927-1.5079-.9397-2.0904-1.6011ZM15.6227,11.2028c-.6483-.9689-1.0515-2.1149-1.1211-3.3482.6985-.2463,1.4489-.3817,2.2304-.3817.154,0,.3058.0072.4568.0173-.5323,1.0283-1.0545,2.2654-1.5661,3.7126ZM18.3618,6.9068c.8811-1.4674,1.8445-2.4232,2.8538-2.4232s1.9727.9558,2.8538,2.4232c-1.0511.2349-2.0204.6901-2.8538,1.3173-.8339-.6272-1.8023-1.0827-2.8538-1.3173ZM21.2157,14.1979c-.7816,0-1.5319-.1354-2.2304-.3817.1033-1.8335.944-3.473,2.2304-4.6258,1.286,1.1528,2.1271,2.7923,2.2304,4.6258-.6989.2463-1.4489.3817-2.2304.3817ZM25.2421,7.4897c.151-.0101.3033-.0173.4568-.0173.782,0,1.5319.1354,2.2304.3817-.0696,1.2337-.4728,2.3797-1.1211,3.3482-.5112-1.4467-1.0338-2.6839-1.5661-3.7126ZM21.2157.7474c3.5713,0,6.5002,2.7986,6.712,6.3176-.704-.2202-1.4526-.3395-2.2283-.3395-.2868,0-.5694.0177-.8478.0493-1.1709-2.0195-2.3865-3.0386-3.6358-3.0386s-2.4649,1.019-3.6358,3.0386c-.2784-.0316-.561-.0493-.8478-.0493-.7757,0-1.5239.1189-2.2283.3395.2117-3.5194,3.1407-6.3176,6.712-6.3176ZM10.0066,14.1983c0-2.6484,1.5391-4.943,3.7691-6.0392.1341,1.4649.693,2.8079,1.5518,3.9066-.0135.0409-.027.0801-.0405.1211-1.0743,3.2626-1.7922,6.5576-2.0394,7.7618-1.9419-1.181-3.241-3.317-3.241-5.7503ZM16.732,20.9238c-.998,0-1.9445-.2202-2.7969-.6116.3632-1.8609,1.0498-4.7721,1.9651-7.5935.6635.6723,1.4526,1.219,2.3296,1.6028.0346,2.1136.9495,4.0163,2.3954,5.3563-1.1.7828-2.443,1.246-3.8931,1.246ZM21.8062,19.677c1.4455-1.34,2.3608-3.2427,2.3954-5.3563.8769-.3838,1.6665-.9305,2.33-1.6028.9149,2.8214,1.6015,5.7326,1.9651,7.5935-.8524.3914-1.7994.6116-2.7973.6116-1.4505.0008-2.7935-.4623-3.8931-1.246ZM29.1837,19.9486c-.2472-1.2042-.9655-4.4992-2.0394-7.7618-.0135-.0409-.027-.0801-.0409-.1211.8592-1.0983,1.4176-2.4417,1.5518-3.9066,2.2304,1.0962,3.7695,3.3908,3.7695,6.0392,0,2.4333-1.2995,4.5693-3.241,5.7503Z"></path>
      <path id="f" data-name="path9" class="g" d="M39.8799,30.018c-.1063-.0464-.1974-.1122-.2725-.1974-.0751-.0852-.1333-.1873-.175-.3062-.0413-.1189-.062-.251-.062-.3965v-.9545c0-.1603.0245-.3012.0734-.4226.0489-.1215.1135-.2231.1932-.3045.0801-.0814.1738-.1421.2801-.1822s.216-.0599.3286-.0599c.1202,0,.2324.0219.3362.0658s.1894.1114.2556.2029.1181.2101.1561.3551c.0274.1076.0468.2307.0582.3682.011.1379.0169.2843.0169.4395,0,.1202-.0059.2543-.0169.402-.0114.148-.0257.2695-.0434.3644-.0426.2181-.1265.388-.2518.5112-.1253.1227-.3003.1839-.526.1839-.127.0004-.2438-.0228-.3505-.0692M39.3708,31.9068v-1.6576c.0578.0751.1346.1527.2311.2328s.2151.1434.3568.1898.3087.0696.5015.0696c.1577,0,.318-.0261.4813-.0789.1628-.0527.3079-.1447.4357-.2763.1278-.1316.2282-.2965.3007-.4939.0574-.1527.1-.3328.1278-.5395.0274-.2067.0413-.4488.0413-.7272,0-.313-.0177-.5884-.0527-.825-.035-.2366-.0966-.4441-.1843-.6221-.2155-.4256-.5947-.6386-1.1384-.6386-.2683,0-.4939.0544-.6782.1637-.1843.1088-.3328.2539-.4454.434l-.0186-.477h-.7141v5.2462h.7554ZM36.0176,30.018c-.1063-.0464-.1974-.1122-.2725-.1974-.0755-.0852-.1333-.1873-.175-.3062s-.062-.251-.062-.3965v-.9545c0-.1603.0245-.3012.073-.4226.0489-.1215.1135-.2231.1936-.3045s.1734-.1421.2796-.1822.2164-.0599.329-.0599c.1202,0,.2324.0219.3362.0658.1038.0439.189.1114.2556.2029.0662.0915.1181.2101.1561.3551.0274.1076.0468.2307.0582.3682.0114.1379.0169.2843.0169.4395,0,.1202-.0055.2543-.0169.402-.0114.148-.0257.2695-.0434.3644-.0426.2181-.1265.388-.2518.5112-.1253.1227-.3003.1839-.526.1839-.1265.0004-.2438-.0228-.3505-.0692M35.5085,31.9068v-1.6576c.0574.0751.1346.1527.2311.2328s.2155.1434.3568.1898c.1417.0464.3088.0696.5015.0696.1582,0,.318-.0261.4808-.0789s.3083-.1447.4361-.2763c.1278-.1316.2282-.2965.3003-.4939.0578-.1527.1004-.3328.1278-.5395.0278-.2067.0418-.4488.0418-.7272,0-.313-.0177-.5884-.0527-.825-.035-.2366-.0966-.4441-.1843-.6221-.2155-.4256-.5951-.6386-1.1384-.6386-.2683,0-.4943.0544-.6782.1637-.1843.1088-.3328.2539-.4454.434l-.019-.477h-.7137v5.2462h.7554ZM32.7681,30.5706c.194-.1139.3589-.2649.4939-.4526l.0076.4998h.7137v-3.9568h-.7554v2.3333c0,.1329-.0287.2788-.0865.4378s-.1599.2999-.3062.4226-.3125.1839-.4977.1839c-.2257,0-.3935-.0569-.5036-.1708s-.1653-.2923-.1653-.5357v-2.6716h-.7554v2.8783c0,.2303.0337.4226.1012.577.0679.154.1561.2775.2649.3699.1088.0928.2316.1586.3682.1974s.2733.0582.4112.0582c.2792,0,.515-.0569.7095-.1708M29.1664,30.6174v-1.8226c0-.1653.0211-.3568.0637-.5749s.1459-.4091.31-.5732.3851-.2459.6631-.2459c.0928,0,.1615.0051.2067.0152v-.763h-.0974c-.2556,0-.4859.0742-.6913.2219s-.3686.3543-.4884.62l-.0076-.8343h-.7137v3.9568s.755,0,.755,0ZM25.5179,30.6174v-1.5859l.5222-.5298,1.0368,2.1157h.8567l-1.3417-2.6792,1.2552-1.2776h-.898l-1.4316,1.4615v-2.8597h-.755v5.3551h.7554ZM21.57,30.6174v-2.3338c0-.135.0295-.2839.0882-.4471.0591-.1628.1607-.3041.3062-.4243.1451-.1202.313-.1805.5036-.1805.2252,0,.3893.0578.4922.1729.1025.1152.154.2927.154.5336v2.6792h.7554v-2.8783c0-.2328-.0422-.4433-.1257-.6314-.0839-.1877-.213-.3294-.3872-.4247-.1742-.0949-.3775-.1426-.6103-.1426-.2805,0-.5184.0565-.7141.1691-.1953.113-.3606.2632-.496.4509l-.0076-.4998h-.7141v3.9568s.7554,0,.7554,0ZM17.7317,27.7484c.0439-.1514.1021-.2721.1746-.3606.0725-.0886.159-.1514.2594-.1877.1-.0363.2105-.0544.3307-.0544.1278,0,.2548.0249.3813.0751s.2282.1653.3045.3454.1147.4307.1147.7516h-1.6382c.0046-.2282.0291-.4176.073-.5694M19.1518,30.6549c.194-.0574.3585-.1459.4922-.2649s.2484-.2687.3438-.4488l-.5977-.3079c-.0325.0548-.0801.1189-.1426.1915-.0624.0725-.1523.1358-.2687.1898s-.2484.081-.3965.081c-.1379,0-.2636-.0177-.3775-.0527-.1143-.035-.2122-.0953-.2953-.1805-.0827-.0852-.1464-.1991-.1915-.3421s-.0679-.3206-.0679-.5336v-.1088h2.3861v-.4134c0-.178-.0089-.3644-.0261-.5601-.0173-.1957-.0582-.3779-.1223-.5466-.0637-.1691-.1582-.3189-.2834-.4492-.113-.1126-.2543-.202-.4247-.2687-.1704-.0662-.3809-.0995-.6314-.0995-.2704,0-.4998.0346-.6875.1033-.1877.0692-.3459.17-.4737.3028-.0953.0953-.1809.2185-.2573.3699-.0763.1518-.1346.3484-.1746.5901-.0401.2417-.0603.5142-.0603.8174,0,.2328.0127.4429.0375.6293.0253.1869.0692.3589.1316.5167.1054.2729.2775.4867.5167.6407s.5542.2311.9452.2311c.2231-.0004.4319-.0291.6259-.0869M15.2701,30.7022c.1291-.0261.243-.0607.3421-.1033.0991-.0426.1843-.0894.2556-.1409.0713-.051.127-.1033.167-.1556.0776-.0979.1405-.2033.1877-.3176.0477-.1139.0713-.2573.0713-.4307,0-.1451-.0165-.2691-.0489-.3716-.0329-.1029-.0704-.1894-.113-.2594-.0603-.0903-.1468-.1809-.2594-.2725s-.3332-.1873-.6614-.2877c-.1653-.0477-.3117-.0953-.4395-.1426-.1278-.0477-.2362-.0983-.3252-.1523-.089-.054-.1561-.113-.2012-.1767-.0447-.0637-.0675-.1371-.0675-.2198,0-.1704.0536-.299.1615-.3868.065-.0578.1438-.0979.2366-.1202.0928-.0228.2016-.0342.3269-.0342.1852,0,.3421.0396.4699.1185s.2282.2012.3003.3665l.6053-.2931c-.1075-.2632-.2792-.4589-.515-.588-.2354-.1291-.5247-.1936-.868-.1936-.1932,0-.3788.024-.558.0713-.1793.0477-.3298.1177-.4513.2105s-.2134.2004-.2759.3231c-.0553.0974-.0936.1991-.1147.3041-.0211.1054-.0321.202-.0321.2893,0,.1004.0152.2063.0451.3176.0304.1118.0814.2134.1544.3062.0574.0725.14.1485.2476.2273.1076.0789.243.1497.4058.2122l.5787.2138c.1025.0401.2071.0827.3138.1278.1067.0451.1911.1059.2539.1822.0624.0763.0941.1784.0941.3062,0,.0877-.0198.1624-.0603.2235-.0401.0612-.0941.1109-.1615.1485s-.1464.0645-.2366.0806c-.0903.0165-.1864.0245-.2893.0245-.1126,0-.213-.0139-.3003-.0413-.0877-.0274-.1666-.0658-.237-.1143-.0704-.0485-.1316-.1059-.1843-.1708-.0527-.0654-.0991-.1367-.1392-.2143l-.6238.278c.0502.1329.1189.2531.2067.3606.0877.1076.1928.2008.3155.278.1278.0776.2699.1396.4264.186.1569.0464.3476.0696.5732.0696.1544.0004.2957-.0127.4243-.0388M11.8878,30.7022c.1291-.0261.243-.0607.3421-.1033.0991-.0426.1843-.0894.2556-.1409.0713-.051.127-.1033.167-.1556.078-.0979.1405-.2033.1881-.3176.0477-.1139.0713-.2573.0713-.4307,0-.1451-.0165-.2691-.0489-.3716-.0325-.1029-.07-.1894-.1126-.2594-.0603-.0903-.1464-.1809-.2594-.2725s-.3332-.1873-.6614-.2877c-.1653-.0477-.3117-.0953-.4395-.1426-.1278-.0477-.2362-.0983-.3252-.1523s-.1561-.113-.2012-.1767c-.0451-.0637-.0675-.1371-.0675-.2198,0-.1704.0536-.299.1615-.3868.0654-.0578.1438-.0979.2366-.1202.0928-.0228.202-.0342.3269-.0342.1852,0,.3421.0396.4695.1185.1278.0789.2282.2012.3007.3665l.6048-.2931c-.1076-.2632-.2792-.4589-.5146-.588s-.5247-.1936-.868-.1936c-.1932,0-.3788.024-.558.0713s-.3294.1177-.4509.2105c-.1219.0928-.2134.2004-.2763.3231-.0548.0974-.0932.1991-.1143.3041-.0211.1054-.0321.202-.0321.2893,0,.1004.0152.2063.0451.3176.0299.1118.0814.2134.154.3062.0578.0725.1405.1485.248.2273.1076.0789.243.1497.4058.2122l.5791.2138c.1025.0401.2071.0827.3138.1278s.1911.1059.2539.1822c.0624.0763.0941.1784.0941.3062,0,.0877-.0202.1624-.0603.2235s-.0941.1109-.1615.1485-.1468.0645-.237.0806c-.0898.0165-.1864.0245-.2893.0245-.113,0-.213-.0139-.3007-.0413s-.1666-.0658-.2366-.1143c-.0704-.0489-.1316-.1059-.1843-.1708-.0527-.0654-.0991-.1367-.1392-.2143l-.6238.278c.0502.1329.1189.2531.2067.3606.0877.1076.1932.2008.3159.278.1278.0776.2699.1396.4264.186.1565.0464.3476.0696.5728.0696.1531.0004.294-.0127.4231-.0388M7.2826,31.9401c.1426-.0401.2818-.1367.4167-.2893.1354-.1527.2607-.3796.3758-.6803l1.6834-4.3099h-.7516l-1.0334,2.7395-.9845-2.7395h-.7702l1.3641,3.7725-.1763.3758c-.0527.1379-.1257.2594-.2198.3644-.0941.1054-.2286.1578-.4041.1578-.0624,0-.1215-.0051-.1767-.0152v.669c.0679.0097.1565.0152.267.0152.1303.0004.2666-.0198.4096-.0599M3.5274,30.6174v-2.3338c0-.135.0295-.2839.0886-.4471.0586-.1628.1607-.3041.3062-.4243.1455-.1202.3134-.1805.5036-.1805.2257,0,.3893.0578.4922.1729s.1544.2927.1544.5336v2.6792h.755v-2.8783c0-.2328-.0418-.4433-.1257-.6314-.0839-.1877-.213-.3294-.3868-.4247-.1742-.0949-.3775-.1426-.6108-.1426-.2704,0-.5002.0515-.6892.154-.1894.1029-.3514.243-.4867.4209v-1.8529h-.755v5.3551h.7542,0ZM2.1195,30.6174v-.6238c-.0953.0097-.1906.0152-.2856.0152-.1177,0-.2134-.0152-.2877-.0451-.0738-.0299-.132-.0751-.1746-.135-.0426-.0603-.0713-.1354-.0865-.2257-.0152-.0903-.0224-.1953-.0224-.3159v-2.033h.8153v-.5935h-.8153v-1.3978h-.7516v1.3978h-.5112v.5935h.5112v2.0406c0,.2029.0169.3876.0506.5542.0337.1666.0953.3079.1843.4247.0886.1164.2109.2063.3661.2704s.3543.0962.5977.0962c.1451,0,.2818-.0076.4096-.0228Z"></path>
    </g>
  </g>
</svg>
