<?xml version="1.0" encoding="UTF-8"?>
<svg xmlns="http://www.w3.org/2000/svg" id="b" data-name="Layer 2" viewBox="0 0 88.3526 32">
  <defs>
    <style>
      .e {
        fill: #e60000;
      }

      .e, .f {
        stroke-width: 0px;
      }

      .f {
        fill: #000;
      }
    </style>
  </defs>
  <g id="c" data-name="groups">
    <g id="d" data-name="UBS">
      <path class="e" d="M51.6869,19.2698c0,6.6087-3.6173,7.4434-7.2348,7.4434-6.1912,0-7.513-3.2-7.513-7.7217V6.1219h-2.2956v-1.2522h8.6956v1.2522h-2.4348v12.4522c0,4.3826,1.1131,6.6087,4.3131,6.6087s4.8-1.6,4.8-6.1912V6.1219h-2.2956v-1.2522h6.1913v1.2522h-2.087l-.1392,13.1479ZM57.7391,25.1828V6.1219h-2.4347v-1.2522h9.6c4.1044,0,6.1217,2.2957,6.1217,5.0087,0,2.9217-2.6435,4.5217-4.9391,5.0087,4.5217.4173,5.7739,3.3391,5.7739,5.4956,0,4.3826-3.7565,6.0522-7.374,6.0522h-9.3217v-1.2522h2.5739ZM67.1304,10.1567c0-2.0174-1.0434-4.0348-3.3391-4.0348h-2.5044v8.2782h2.2262c2.5043,0,3.6173-2.0174,3.6173-4.2434ZM67.9652,20.4524c0-2.8523-1.2521-4.8001-4.1044-4.8001h-2.4347v9.6h2.0174c2.9912-.0696,4.5217-1.8782,4.5217-4.8ZM81.5304,5.8437c-2.2956,0-3.7565,1.3217-3.7565,3.687,0,2.087,2.2956,3.1304,4.5218,3.8957,1.3217.4869,2.9913,1.113,4.1738,2.1565,1.2522,1.1826,1.9479,2.7827,1.8783,4.8001-.0696,3.7565-2.7131,6.3304-7.374,6.3304-1.7391,0-4.4521-.4174-6.0522-1.3217l-.2087-5.6348h1.3913c.1392,3.8261,1.8783,5.7739,5.0087,5.7739,2.5043,0,3.8956-1.6695,3.8956-4.2434,0-2.2262-1.8086-3.1305-4.5913-4.1044-.9044-.2783-2.713-.9739-3.9652-2.2261-1.113-1.1131-1.6695-2.574-1.6695-4.0349,0-4.3826,3.1304-6.3304,7.0261-6.3304,1.5304,0,3.826.5565,5.2174,1.3217l.1391,4.9392h-1.3913c-.2087-3.4783-1.7391-5.0087-4.2435-5.0087Z"></path>
      <path class="f" d="M23.7217,9.2522l-.5565.487.6261,2.0174-1.8087-.9739-.626.4869,2.0174,1.1131-2.1566,1.7391-.5565-.7653.7652-.6261-.5565-.6956-.7652.6261-.6261-.8349.7652-.626-.5565-.7653-3.8956,3.2696,3.7565,2.9913.6956-.8348c.487,0,.8348.4173,1.0435.8348l-.6957.8348.4174.3478c.9044-.8349,2.1565-1.3914,3.4087-1.3914,2.6435,0,4.6609,2.1566,4.6609,4.8001,0,.8348-.2087,1.8087-.6957,2.5739l.6957.5565c0,.4869-.4869,1.0434-.9739,1.1826l-.6956-.5565c-.9044.9044-2.1566,1.3913-3.4088,1.3913-2.6434,0-4.6609-2.087-4.6609-4.7305,0-.8348.2784-1.7391.6261-2.5043l-.4869-.3478-.6957.9044c-.4869-.0696-.9043-.4173-1.0434-.9044l.6957-.7652-3.1305-2.6435v4.174h1.0435c.1391.2087.2087.4173.2087.626s-.0696.487-.2087.6957h-1.0435v.4869c2.2956.4174,4.2435,2.3652,4.2435,4.7305,0,2.4348-1.8783,4.3826-4.2435,4.8v.8349c-.2087.1391-.4869.2087-.7652.2087s-.6261-.0696-.8348-.2087v-.8349c-2.3652-.3477-4.1739-2.3651-4.1739-4.8,0-2.3652,1.8087-4.313,4.1739-4.6609v-.5565h-1.113c-.1392-.2087-.2088-.4174-.2088-.6957s.0696-.4869.2088-.6956h1.113v-4.174l-3.2,2.6435.6957.7652c-.1392.487-.5566.8349-1.0435.9044l-.6957-.9044-.4174.4174c.4174.7652.6957,1.6001.6957,2.5043,0,2.6435-2.087,4.7305-4.6609,4.7305-1.2522,0-2.5043-.4869-3.4087-1.3913l-.6957.5565c-.4174-.1392-.9043-.6957-.9739-1.1826l.6957-.5565c-.4174-.7652-.6957-1.6695-.6957-2.5739,0-2.6435,2.0174-4.8001,4.6609-4.8001,1.2522,0,2.5043.5565,3.4087,1.3914l.4174-.2783-.6957-.8349c.1391-.4173.5565-.7652,1.0435-.8348l.6957.8348,3.7565-2.9912-3.8956-3.2696-.5565.7652.7652.6261-.5565.7653-.7652-.6261-.5565.6956.6261.487-.5565.7652-2.087-1.7391,1.9478-1.113-.5565-.4869-1.8087.9738.5565-1.8782-.5565-.487-.6957,2.1565-2.1565-1.7391.5565-.6957.7652.6261.6261-.6957-.7652-.6957.5565-.6957.7652.5565.5565-.6957-1.6696-1.2522c.1391-.5565.487-.9739,1.0435-1.3217l8.8348,7.2348v-4.8h-.9044v.9043h-.9044v-.9043h-.9044v.9043h-.9043v-2.713l2.0869.9043v-.7652l-1.9478-.8348,1.9478-.7652v-.6957l-2.0869.8348V1.3217h.9043v.9739h.9044v-.9739h.9044v.9739h.9044V.1391c.2783-.0696.5565-.1391.8348-.1391s.5565.0696.7652.1391v11.8957l8.8348-7.2348c.4869.3478.8348.7652,1.0434,1.3217l-1.6695,1.3217.5565.6957.7653-.5565.5565.6957-.7653.6957.5565.6957.7653-.6261.5565.6957-2.1566,1.7392-.6261-2.2261ZM5.7043,22.3304c0,.7653.5565,1.2522,1.2522,1.3218l-1.113.8348c-.7652-.2783-1.4609-1.1826-1.4609-2.0174,0-.2783.0696-.4174.1391-.6261h-.2087c-1.0435,0-1.8783-.9739-2.087-1.9478l1.1826-.9044v.3478c0,.626.6261,1.1825,1.2522,1.1825.6957,0,1.3217-.5565,1.3217-1.2521,0-.8348-.6261-1.3913-1.4609-1.3913-1.5304,0-3.0609,1.5304-3.0609,3.4783,0,.5565.1391,1.113.3478,1.6l.6957-.5565c.487.2087.8348.6957.9739,1.2522l-.6957.5565c.6957.5565,1.5304.8348,2.3652.8348,1.8087,0,3.2-1.4609,3.2-2.7131,0-.7652-.487-1.3913-1.2522-1.3913-.8348.1392-1.3913.6957-1.3913,1.3913ZM15.1652,25.1131c0,.6956.5565,1.2521,1.2522,1.2521.4869,0,.6956-.2087,1.0434-.4869v1.4609c-.3478.2087-.6957.2783-1.113.2783-.7653,0-1.3913-.2087-1.8087-.9044-.4174.6957-1.113.9044-1.8782.9044-.3478,0-.7653-.0696-1.1131-.2783v-1.4609c.3478.3478.5565.4869,1.0435.4869.6956,0,1.2521-.5565,1.2521-1.2521s-.4173-1.2522-1.1825-1.2522c-1.3218,0-1.8783,1.2522-1.8783,2.4348,0,1.6695,1.2522,3.1304,2.8522,3.4087v-.8348c.2783-.1392.5565-.1392.7653-.1392.2783,0,.5565,0,.8348.1392v.8348c1.5304-.2087,2.8522-1.8087,2.8522-3.4087,0-1.1826-.487-2.4348-1.8783-2.4348-.5565-.0696-1.0434.5565-1.0434,1.2522ZM23.0957,19.3392c0,.626.6956,1.2521,1.3217,1.2521s1.2522-.5565,1.2522-1.1826v-.3478l1.113.9044c-.2087,1.1131-1.1826,2.0174-2.2956,1.9479.0695.2087.0695.4173.0695.6261,0,.8348-.6956,1.739-1.4608,2.0174l-1.0435-.9044c.6957-.0696,1.2522-.5565,1.2522-1.3218s-.6261-1.2521-1.3218-1.2521c-.7652,0-1.2521.626-1.2521,1.3913,0,.9044,1.113,2.713,3.2695,2.713.8349,0,1.6696-.2783,2.2956-.8348l-.6956-.5565c.1391-.5565.4869-1.0434.9739-1.2521l.6956.5565c.2783-.487.4174-1.0435.4174-1.6001,0-1.5305-1.1826-3.4783-3.0609-3.4783-.8348,0-1.5304.4869-1.5304,1.3218Z"></path>
    </g>
  </g>
</svg>
