<?xml version="1.0" encoding="UTF-8"?>
<svg xmlns="http://www.w3.org/2000/svg" id="b" data-name="Layer 2" viewBox="0 0 135.7576 32">
  <defs>
    <style>
      .e {
        fill: #2f89fc;
        fill-rule: evenodd;
        stroke-width: 0px;
      }
    </style>
  </defs>
  <g id="c" data-name="groups">
    <g id="d" data-name="Vertt">
      <path class="e" d="M36.5659.0832c.013-.0511.0202-.0793.0214-.0832h6.5642c-.0646.2999-2.1522,8.8675-5.3375,16.0642-4.6918,10.581-10.1584,15.9358-16.2491,15.9358-6.1122,0-11.5788-5.3548-16.2491-15.9358C2.1307,8.8461.0646.2999,0,0h6.4996c.0013.0039.0084.032.0214.0831h0c.2036.8006,1.8354,7.2148,4.6272,13.4965,3.4005,7.6895,7.2098,12.1018,10.3951,12.1018s6.9731-4.4123,10.3951-12.1018C34.7304,7.2979,36.3622.8837,36.5659.0832ZM80.4848,32v-15.1173c0-6.9145,6.7413-12.519,15.0303-12.519v6.3347c-4.7486,0-8.7767,2.8345-8.7767,6.1843v15.1173h-6.2536ZM59.8788,4.3636c4.4315,0,8.6487,1.3324,11.8385,3.7393,3.4681,2.6218,5.3736,6.1891,5.3736,10.0359,0,1.2067-.1702,2.5842-.2221,3.0063h0v.0002l-.0082.0639-.0024.0204c-.001.01-.0019.0185-.0029.0253h-26.8882c1.7338,2.5573,5.5661,4.4055,9.9118,4.4055h10.961v6.3396h-10.961c-4.4315,0-8.6487-1.3324-11.8387-3.7393-3.4681-2.6218-5.3734-6.1891-5.3734-10.0359,0-7.6505,7.7285-13.8611,17.2121-13.8611ZM70.2187,15.8179c-1.4769-2.9441-5.6087-5.1147-10.3399-5.1147-4.6885,0-8.7985,2.1705-10.2972,5.1147h20.6371ZM135.7576,4.4736v6.3144h-8.8819v8.7331c0,3.3392,4.0766,6.1646,8.8819,6.1646v6.3144c-8.3884,0-15.2107-5.608-15.2107-12.4789v-8.7331h-14.8242v8.7331c0,3.3392,4.0761,6.1646,8.8819,6.1646v6.3144c-8.3884,0-15.2107-5.608-15.2107-12.4789V0h6.3287v4.4736h14.8242V0h6.3287v4.4736h8.8819Z"></path>
    </g>
  </g>
</svg>
